<svg width="119" height="20" viewBox="0 0 119 20" fill="none" xmlns="http://www.w3.org/2000/svg">
<g clip-path="url(#clip0_3341_45020)">
<path d="M35.6818 15.784C35.6228 15.784 35.5934 15.7224 35.5934 15.5978C35.5934 15.4946 35.6228 15.4423 35.6818 15.4423H35.8145C36.1388 15.4423 36.4309 15.315 36.6923 15.0617C36.9522 14.8084 37.0836 14.4439 37.0836 13.9668V5.78673C36.9161 5.445 36.7365 5.18903 36.5448 5.01884C36.3532 4.84864 36.124 4.73205 35.8587 4.66907L35.6818 4.63824C35.6135 4.61814 35.5786 4.56052 35.5786 4.46805C35.5786 4.35414 35.6135 4.29785 35.6818 4.29785H38.882L44.264 12.5249V6.09898C44.264 5.63395 44.134 5.27614 43.8726 5.02822C43.6113 4.7803 43.3192 4.6503 42.9949 4.63958H42.8622C42.7938 4.63958 42.759 4.5833 42.759 4.46939C42.759 4.35548 42.7938 4.29919 42.8622 4.29919H46.254C46.3224 4.29919 46.3572 4.35548 46.3572 4.46939C46.3572 4.5833 46.3224 4.63958 46.254 4.63958H46.1066C45.7823 4.6503 45.4928 4.77896 45.2369 5.02822C44.9809 5.27614 44.8536 5.63395 44.8536 6.09898V15.784H43.7185L37.6732 6.50235V13.9682C37.6732 14.4439 37.8032 14.8084 38.0645 15.0631C38.3245 15.3163 38.618 15.4437 38.9423 15.4437H39.075C39.1433 15.4437 39.1782 15.4959 39.1782 15.5991C39.1782 15.7237 39.1433 15.7854 39.075 15.7854H35.6831L35.6818 15.784Z" fill="white"/>
<path d="M55.0572 13.9521L55.0425 14.0459C54.816 14.5525 54.4501 15.0027 53.9436 15.3967C53.437 15.7894 52.8098 15.9864 52.0634 15.9864C51.3169 15.9864 50.6603 15.8082 50.0653 15.4503C49.4702 15.0939 49.0079 14.6154 48.6796 14.0151C48.3499 13.4147 48.1851 12.7688 48.1851 12.0746C48.1851 11.4434 48.3298 10.8175 48.6206 10.1971C48.9101 9.57658 49.3362 9.06465 49.8964 8.65994C50.4566 8.25656 51.1199 8.0542 51.8865 8.0542C52.4266 8.0542 52.9331 8.18821 53.4048 8.45758C53.8766 8.72694 54.2679 9.11156 54.5774 9.6141C54.887 10.1166 55.076 10.709 55.1457 11.3911L50.2502 11.4219C50.2408 11.5251 50.2354 11.7007 50.2354 11.9499C50.2354 12.8291 50.4204 13.5929 50.7889 14.2389C51.1575 14.8861 51.7257 15.2091 52.4922 15.2091C53.4062 15.2091 54.158 14.7535 54.749 13.8435C54.7785 13.7913 54.8227 13.7658 54.8817 13.7658C54.9018 13.7658 54.9312 13.7765 54.9701 13.7966C55.0291 13.8382 55.0586 13.8904 55.0586 13.9521H55.0572ZM50.9216 8.95476C50.6026 9.28577 50.3936 9.93305 50.2944 10.8953L53.1998 10.8644V10.5696C53.1998 9.92769 53.0671 9.41576 52.8018 9.03249C52.5364 8.64921 52.2162 8.45758 51.8436 8.45758C51.5488 8.45758 51.2419 8.62375 50.9216 8.95476Z" fill="white"/>
<path d="M57.2242 13.3623L57.2095 13.2845C57.2095 13.2015 57.2483 13.1452 57.3274 13.1143C57.3475 13.1036 57.377 13.0983 57.4158 13.0983C57.4842 13.0983 57.5391 13.1345 57.578 13.2068C58.4826 14.7279 59.544 15.489 60.7635 15.489C61.2151 15.489 61.5474 15.3778 61.7592 15.1554C61.9709 14.9329 62.0768 14.6568 62.0768 14.3245C62.0768 14.0967 62.0085 13.8876 61.8704 13.696C61.7324 13.5043 61.5354 13.3516 61.2808 13.2376C60.9766 13.1036 60.5343 12.9428 59.954 12.7565C59.7182 12.6842 59.485 12.6064 59.2532 12.5234C59.0227 12.4403 58.8377 12.3625 58.6997 12.2902C58.3258 12.0932 58.0269 11.8319 57.8005 11.5062C57.574 11.1806 57.4614 10.8 57.4614 10.3658C57.4614 9.93156 57.5619 9.56972 57.7629 9.21727C57.964 8.86616 58.2494 8.58339 58.6179 8.37165C58.9865 8.15991 59.4073 8.0527 59.879 8.0527C60.1738 8.0527 60.4392 8.07817 60.675 8.13043C60.9109 8.18269 61.2057 8.25506 61.5595 8.34753C61.786 8.4199 61.928 8.45608 61.987 8.45608C62.125 8.45608 62.2644 8.4065 62.4078 8.30867C62.5499 8.21084 62.6665 8.07817 62.7549 7.91333L63.4035 10.288L63.4183 10.3818C63.4183 10.4435 63.3794 10.4957 63.3003 10.5373C63.2615 10.5587 63.2213 10.5681 63.1824 10.5681C63.1234 10.5681 63.0739 10.5373 63.035 10.4743C62.6021 9.78146 62.0889 9.2816 61.4938 8.97605C60.8988 8.6705 60.3708 8.51773 59.9085 8.51773C59.4863 8.51773 59.1862 8.62628 59.0093 8.84338C58.8324 9.06048 58.7439 9.28294 58.7439 9.51076C58.7439 9.88331 59.0146 10.2036 59.5547 10.473C59.7999 10.5869 60.1591 10.7209 60.6308 10.8763C61.3773 11.1243 61.9039 11.3266 62.2081 11.4821C62.6303 11.6992 62.972 11.9846 63.2333 12.3357C63.4933 12.6882 63.6246 13.1063 63.6246 13.5928C63.6246 14.3486 63.3714 14.9356 62.8648 15.355C62.3582 15.7745 61.7069 15.9836 60.9109 15.9836C60.6254 15.9836 60.3574 15.9581 60.1068 15.9058C59.8562 15.8536 59.5641 15.7812 59.229 15.6887C58.9235 15.5963 58.7225 15.5494 58.6246 15.5494C58.3499 15.5494 58.094 15.7102 57.8581 16.0305L57.2242 13.3609V13.3623Z" fill="white"/>
<path d="M66.9122 15.3725C66.5584 14.9637 66.3708 14.366 66.352 13.5794V8.75225H65.04V8.22424C65.7865 8.06878 66.419 7.74849 66.935 7.26203C67.4509 6.77556 67.798 6.0251 67.9749 5.01196H68.2697V8.22424H70.1124V8.75225H68.2697L68.2403 12.2593C68.2403 12.9522 68.2456 13.3663 68.255 13.5016C68.2845 14.0913 68.3903 14.4974 68.5726 14.7198C68.7549 14.9423 68.9974 15.0535 69.303 15.0535C69.5 15.0535 69.6715 15.0093 69.8189 14.9222C69.9663 14.8337 70.1432 14.681 70.3496 14.4639C70.3992 14.4022 70.4434 14.37 70.4823 14.37C70.5211 14.37 70.564 14.3915 70.6082 14.4317C70.6525 14.4732 70.6739 14.5148 70.6739 14.5563C70.6739 14.5778 70.6645 14.6086 70.6444 14.6501C70.3389 15.1366 70.0106 15.481 69.6568 15.682C69.303 15.883 68.905 15.9849 68.4627 15.9849C67.7846 15.9849 67.2687 15.7812 66.9149 15.3711L66.9122 15.3725Z" fill="white"/>
<path d="M78.6488 15.3645C78.5214 15.3029 78.3981 15.2707 78.2802 15.2707C78.1328 15.2707 77.9854 15.3203 77.838 15.4181C77.6906 15.5159 77.5083 15.6794 77.2925 15.9072L76.6144 12.8813L76.585 12.7258C76.585 12.7057 76.597 12.6843 76.6225 12.6642C76.6466 12.644 76.6721 12.628 76.6962 12.6172C76.7203 12.6065 76.7377 12.5971 76.7471 12.5864C76.7672 12.5757 76.7967 12.5703 76.8356 12.5703C76.8744 12.5703 76.9294 12.6119 76.9977 12.695C77.4989 13.4401 78.0738 14.0632 78.7225 14.5658C79.3711 15.0683 80.1336 15.3189 81.0074 15.3189C81.6359 15.3189 82.1425 15.1514 82.5257 14.815C82.909 14.4787 83.1006 13.9949 83.1006 13.3637C83.1006 12.577 82.6825 12.0035 81.8476 11.6403C81.4643 11.4647 80.9819 11.2838 80.403 11.0975C80.3051 11.0667 80.0586 10.9783 79.6659 10.8335C79.2733 10.6888 78.9235 10.5334 78.6193 10.3685C78.0685 10.0683 77.6557 9.68104 77.381 9.20395C77.1063 8.72821 76.9682 8.18546 76.9682 7.57436C76.9682 7.0879 77.0768 6.58133 77.2925 6.05332C77.5083 5.52531 77.8849 5.07235 78.4209 4.69578C78.957 4.31786 79.6619 4.12891 80.537 4.12891C80.8519 4.12891 81.1534 4.16509 81.4442 4.23746C81.7337 4.30982 82.0862 4.42373 82.4989 4.57919C82.6664 4.64083 82.8031 4.67166 82.9117 4.67166C83.0591 4.67166 83.1971 4.63011 83.3244 4.54702C83.4518 4.46394 83.5951 4.32992 83.7519 4.14365L84.5037 6.82925L84.5332 6.95389C84.5332 7.00615 84.489 7.05171 84.4006 7.09326C84.3416 7.1147 84.2974 7.12408 84.2679 7.12408C84.2183 7.12408 84.1701 7.0879 84.1205 7.01553C84.0025 6.80915 83.7908 6.52639 83.4866 6.16991C83.1824 5.81344 82.7683 5.47707 82.2483 5.1608C81.727 4.84587 81.1467 4.68774 80.5088 4.68774C79.9487 4.68774 79.5185 4.80701 79.2183 5.04421C78.9181 5.28275 78.7198 5.54676 78.6206 5.83622C78.5228 6.12569 78.4732 6.37897 78.4732 6.59741C78.4732 6.90832 78.5469 7.18707 78.6943 7.43499C78.8417 7.68291 79.0575 7.89063 79.3429 8.05547C79.6083 8.21092 79.9741 8.37174 80.4418 8.53657C80.9082 8.70275 81.1869 8.80058 81.2754 8.8314C81.4027 8.87294 81.668 8.96541 82.0714 9.11014C82.4748 9.25488 82.8139 9.39425 83.0886 9.5296C84.4153 10.1715 85.0787 11.1391 85.0787 12.4323C85.0787 13.0943 84.9259 13.6947 84.6217 14.2334C84.3175 14.7722 83.8699 15.1983 83.2802 15.5133C82.6906 15.8282 81.987 15.9863 81.1722 15.9863C80.4539 15.9863 79.6136 15.7799 78.6501 15.3658L78.6488 15.3645Z" fill="white"/>
<path d="M88.484 15.3725C88.1302 14.9637 87.9426 14.366 87.9238 13.5794V8.75225H86.6118V8.22424C87.3583 8.06878 87.9908 7.74849 88.5068 7.26203C89.0227 6.77556 89.3698 6.0251 89.5467 5.01196H89.8415V8.22424H91.6842V8.75225H89.8415L89.812 12.2593C89.812 12.9522 89.8174 13.3663 89.8268 13.5016C89.8563 14.0913 89.9621 14.4974 90.1444 14.7198C90.3266 14.9423 90.5692 15.0535 90.8747 15.0535C91.0717 15.0535 91.2433 15.0093 91.3907 14.9222C91.5381 14.8337 91.715 14.681 91.9214 14.4639C91.971 14.4022 92.0152 14.37 92.0541 14.37C92.0929 14.37 92.1345 14.3915 92.1787 14.4317C92.2229 14.4732 92.2457 14.5148 92.2457 14.5563C92.2457 14.5778 92.2363 14.6086 92.2162 14.6501C91.912 15.1366 91.5823 15.481 91.2285 15.682C90.8748 15.883 90.4767 15.9849 90.0345 15.9849C89.3564 15.9849 88.8404 15.7812 88.4867 15.3711L88.484 15.3725Z" fill="white"/>
<path d="M101.394 14.4024C101.418 14.4238 101.431 14.4546 101.431 14.4962L101.416 14.5739C101.298 14.9679 101.077 15.2962 100.753 15.5589C100.429 15.8229 100.079 15.9542 99.7064 15.9542C98.9693 15.9542 98.4869 15.6125 98.2618 14.9304C97.8785 15.2828 97.4456 15.5482 96.9645 15.7291C96.4834 15.91 96.0157 16.0011 95.5641 16.0011C94.9449 16.0011 94.4612 15.8484 94.1114 15.5428C93.763 15.2373 93.5874 14.8165 93.5874 14.2777C93.5874 13.471 94.0203 12.8291 94.8846 12.3533C95.1205 12.2287 95.3765 12.1309 95.6512 12.0585C95.9259 11.9861 96.2944 11.903 96.7568 11.8106C97.2781 11.7168 97.7351 11.6136 98.1277 11.4997V10.8015C98.1277 10.1703 98.113 9.72801 98.0835 9.47473C98.054 9.22145 97.9803 9.01105 97.8624 8.84621C97.6654 8.59829 97.4054 8.47366 97.0811 8.47366C96.8359 8.47366 96.6214 8.55675 96.4392 8.72158C96.2569 8.88776 96.1068 9.23351 95.9889 9.76152C95.9005 10.1448 95.7597 10.4289 95.5681 10.6152C95.3765 10.8015 95.158 10.8939 94.9114 10.8939C94.6649 10.8939 94.4491 10.8189 94.2628 10.6688C94.0765 10.5187 93.9827 10.3096 93.9827 10.0403C93.9827 9.83388 94.0591 9.57792 94.2119 9.27237C94.3647 8.96682 94.6689 8.68808 95.1259 8.43479C95.5828 8.18151 96.2248 8.0542 97.0503 8.0542C98.2095 8.0542 99.0605 8.36511 99.6019 8.98559C99.7788 9.19196 99.8994 9.42246 99.9637 9.67575C100.028 9.92903 100.06 10.2426 100.06 10.6152L100.045 12.3225C100.036 12.6642 100.031 13.1922 100.031 13.9052C100.031 14.3608 100.075 14.653 100.163 14.7816C100.252 14.9116 100.37 14.9759 100.517 14.9759C100.635 14.9759 100.756 14.9317 100.879 14.8446C101.002 14.7562 101.112 14.6248 101.211 14.4493C101.241 14.3983 101.276 14.3715 101.315 14.3715C101.344 14.3715 101.371 14.3823 101.396 14.4024H101.394ZM97.4416 14.9692C97.6922 14.8714 97.9307 14.724 98.1572 14.527C98.1184 14.2684 98.0983 13.9628 98.0983 13.6117L98.113 11.9044C97.2178 12.1523 96.5692 12.4605 96.1671 12.8277C95.7638 13.1949 95.5627 13.6425 95.5627 14.1705C95.5627 14.46 95.6659 14.6905 95.8723 14.8607C96.0787 15.0309 96.3534 15.1166 96.6978 15.1166C96.9431 15.1166 97.1923 15.0671 97.4429 14.9692H97.4416Z" fill="white"/>
<path d="M110.632 8.22437C110.701 8.22437 110.735 8.28199 110.735 8.39456C110.735 8.45621 110.721 8.49775 110.691 8.51919C110.662 8.54063 110.623 8.55538 110.573 8.5661C110.524 8.57682 110.49 8.58754 110.47 8.59692C110.225 8.65857 110.01 8.78588 109.828 8.97751C109.646 9.16915 109.448 9.50284 109.23 9.97859C108.877 10.7652 108.414 11.8025 107.845 13.0904C107.275 14.3782 106.754 15.5656 106.282 16.6524C105.859 17.6146 105.442 18.2954 105.029 18.6934C104.616 19.0914 104.189 19.2911 103.747 19.2911C103.245 19.2911 102.872 19.1772 102.626 18.9494C102.381 18.7216 102.258 18.4683 102.258 18.1882C102.258 17.9081 102.341 17.7017 102.508 17.5369C102.676 17.3707 102.886 17.289 103.142 17.289C103.31 17.289 103.449 17.3091 103.563 17.3506C103.676 17.3921 103.807 17.4538 103.954 17.5369C104.082 17.62 104.2 17.6789 104.308 17.7151C104.417 17.7513 104.544 17.7701 104.691 17.7701C104.878 17.7701 105.043 17.6843 105.186 17.5141C105.328 17.3439 105.498 17.0558 105.695 16.6524L106.167 15.6285C105.902 15.0188 105.601 14.3099 105.268 13.5018C104.127 10.843 103.523 9.43986 103.455 9.29512C103.327 9.02576 103.199 8.83948 103.071 8.73629C102.944 8.6331 102.756 8.58084 102.511 8.58084C102.443 8.58084 102.408 8.51919 102.408 8.39456C102.408 8.28065 102.443 8.22437 102.511 8.22437H106.109C106.178 8.22437 106.213 8.28199 106.213 8.39456C106.213 8.50713 106.174 8.57012 106.095 8.58084C105.888 8.60228 105.729 8.65321 105.615 8.73629C105.502 8.81938 105.445 8.91721 105.445 9.03112C105.445 9.10349 105.469 9.20668 105.518 9.34203C105.577 9.51758 105.796 10.0764 106.175 11.0185C106.553 11.9606 106.88 12.762 107.156 13.424C107.215 13.29 107.279 13.1426 107.348 12.9818C107.416 12.821 107.495 12.6481 107.583 12.4618C107.701 12.1925 107.905 11.7221 108.196 11.0493C108.485 10.3766 108.656 9.95312 108.705 9.77623C108.755 9.64222 108.779 9.52294 108.779 9.41976C108.779 9.14101 108.656 8.92793 108.41 8.7832C108.165 8.63846 107.904 8.5661 107.629 8.5661C107.561 8.5661 107.526 8.50981 107.526 8.3959C107.526 8.28199 107.561 8.22571 107.629 8.22571H110.638L110.632 8.22437Z" fill="white"/>
<path d="M12.7133 4.97186V18.0099C12.7133 19.0472 11.8985 19.8888 10.8921 19.8888H12.7133C15.3748 19.8888 17.5337 17.6628 17.5337 14.9169V0C14.8723 0 12.7133 2.22594 12.7133 4.97186Z" fill="white"/>
<path d="M26.8517 15.0268V1.98872C26.8517 0.951461 27.6665 0.109863 28.6729 0.109863H26.8517C24.1902 0.109863 22.0312 2.33581 22.0312 5.08172V19.9986C24.6927 19.9986 26.8517 17.7727 26.8517 15.0268Z" fill="white"/>
<path d="M9.44599 19.8889C10.2446 19.8889 10.892 19.2211 10.892 18.3973C10.892 17.5736 10.2446 16.9058 9.44599 16.9058C8.64739 16.9058 8 17.5736 8 18.3973C8 19.2211 8.64739 19.8889 9.44599 19.8889Z" fill="white"/>
<path d="M29.7971 3.09444C30.5957 3.09444 31.2431 2.42665 31.2431 1.60289C31.2431 0.779121 30.5957 0.111328 29.7971 0.111328C28.9985 0.111328 28.3511 0.779121 28.3511 1.60289C28.3511 2.42665 28.9985 3.09444 29.7971 3.09444Z" fill="white"/>
<path d="M20.2848 12.9415C20.1146 12.9415 19.9605 12.8236 19.9216 12.6507L17.1797 0.49716C17.1342 0.296141 17.2601 0.0964629 17.4612 0.0508988C17.6622 0.00667468 17.8618 0.131306 17.9074 0.332325L20.6493 12.4859C20.6949 12.6869 20.5689 12.8866 20.3679 12.9322C20.3397 12.9389 20.3129 12.9415 20.2861 12.9415H20.2848Z" fill="white"/>
</g>
<defs>
<clipPath id="clip0_3341_45020">
<rect width="102.735" height="20" fill="white" transform="translate(8)"/>
</clipPath>
</defs>
</svg>
