<svg width="76" height="79" viewBox="0 0 76 79" fill="none" xmlns="http://www.w3.org/2000/svg">
<g clip-path="url(#clip0_3382_11349)">
<path d="M64.3995 0H11.5995C5.19301 0 -0.000488281 5.1935 -0.000488281 11.6V66.8C-0.000488281 73.2065 5.19301 78.4 11.5995 78.4H64.3995C70.806 78.4 75.9995 73.2065 75.9995 66.8V11.6C75.9995 5.1935 70.806 0 64.3995 0Z" fill="black"/>
<path d="M21.3261 27.0657V58.5317C21.3261 61.0357 19.3581 63.0657 16.9321 63.0657H21.3261C27.7501 63.0657 32.9581 57.6937 32.9581 51.0657V15.0657C26.5341 15.0657 21.3261 20.4377 21.3261 27.0657Z" fill="#C1491A"/>
<path d="M55.4484 51.3338V19.8658C55.4484 17.3618 57.4164 15.3318 59.8424 15.3318H55.4484C49.0244 15.3318 43.8164 20.7038 43.8164 27.3318V63.3318C50.2404 63.3318 55.4484 57.9598 55.4484 51.3318V51.3338Z" fill="#C1491A"/>
<path d="M13.4421 63.0657C15.3696 63.0657 16.9321 61.4539 16.9321 59.4657C16.9321 57.4775 15.3696 55.8657 13.4421 55.8657C11.5147 55.8657 9.95215 57.4775 9.95215 59.4657C9.95215 61.4539 11.5147 63.0657 13.4421 63.0657Z" fill="#C1491A"/>
<path d="M62.5584 22.5337C64.4858 22.5337 66.0484 20.922 66.0484 18.9337C66.0484 16.9455 64.4858 15.3337 62.5584 15.3337C60.6309 15.3337 59.0684 16.9455 59.0684 18.9337C59.0684 20.922 60.6309 22.5337 62.5584 22.5337Z" fill="#C1491A"/>
<path d="M32.9844 16.0698L39.6004 45.3998" stroke="#C1491A" stroke-width="1.8" stroke-miterlimit="10" stroke-linecap="round"/>
</g>
<defs>
<clipPath id="clip0_3382_11349">
<rect width="76" height="78.4" fill="white"/>
</clipPath>
</defs>
</svg>
