<svg width="76" height="79" viewBox="0 0 76 79" fill="none" xmlns="http://www.w3.org/2000/svg">
<g clip-path="url(#clip0_3382_11350)">
<path d="M64.4005 0H11.6005C5.19398 0 0.000488281 5.1935 0.000488281 11.6V66.8C0.000488281 73.2065 5.19398 78.4 11.6005 78.4H64.4005C70.807 78.4 76.0005 73.2065 76.0005 66.8V11.6C76.0005 5.1935 70.807 0 64.4005 0Z" fill="#C1491A"/>
<path d="M21.3271 27.0659V58.5319C21.3271 61.0359 19.3591 63.0659 16.9331 63.0659H21.3271C27.7511 63.0659 32.9591 57.6939 32.9591 51.0659V15.0659C26.5351 15.0659 21.3271 20.4379 21.3271 27.0659Z" fill="#1E1E1E"/>
<path d="M55.4489 51.334V19.866C55.4489 17.362 57.4169 15.332 59.8429 15.332H55.4489C49.0249 15.332 43.8169 20.704 43.8169 27.332V63.332C50.2409 63.332 55.4489 57.96 55.4489 51.332V51.334Z" fill="#1E1E1E"/>
<path d="M13.4431 63.066C15.3706 63.066 16.9331 61.4542 16.9331 59.466C16.9331 57.4777 15.3706 55.866 13.4431 55.866C11.5157 55.866 9.95312 57.4777 9.95312 59.466C9.95312 61.4542 11.5157 63.066 13.4431 63.066Z" fill="#1E1E1E"/>
<path d="M62.5593 22.534C64.4868 22.534 66.0493 20.9222 66.0493 18.934C66.0493 16.9458 64.4868 15.334 62.5593 15.334C60.6319 15.334 59.0693 16.9458 59.0693 18.934C59.0693 20.9222 60.6319 22.534 62.5593 22.534Z" fill="#1E1E1E"/>
<path d="M39.6014 46.3C39.1894 46.3 38.8194 46.016 38.7234 45.598L32.1074 16.268C31.9974 15.784 32.3034 15.302 32.7874 15.192C33.2714 15.084 33.7534 15.388 33.8634 15.872L40.4794 45.202C40.5894 45.686 40.2834 46.168 39.7994 46.278C39.7334 46.294 39.6654 46.3 39.6014 46.3Z" fill="#1E1E1E"/>
</g>
<defs>
<clipPath id="clip0_3382_11350">
<rect width="76" height="78.4" fill="white"/>
</clipPath>
</defs>
</svg>
