<svg width="32" height="32" viewBox="0 0 32 32" fill="none" xmlns="http://www.w3.org/2000/svg">
<g clip-path="url(#clip0_394_27062)">
<path d="M27.1158 0H4.88421C2.18674 0 0 2.11979 0 4.73469V27.2653C0 29.8802 2.18674 32 4.88421 32H27.1158C29.8133 32 32 29.8802 32 27.2653V4.73469C32 2.11979 29.8133 0 27.1158 0Z" fill="black"/>
<path d="M8.97901 11.0464V23.8897C8.97901 24.9117 8.15038 25.7403 7.12891 25.7403H8.97901C11.6839 25.7403 13.8767 23.5476 13.8767 20.8423V6.14844C11.1719 6.14844 8.97901 8.34109 8.97901 11.0464Z" fill="#C1491A"/>
<path d="M23.3469 20.9525V8.10842C23.3469 7.08638 24.1755 6.25781 25.197 6.25781H23.3469C20.6421 6.25781 18.4492 8.45047 18.4492 11.1558V25.8496C21.1541 25.8496 23.3469 23.657 23.3469 20.9517V20.9525Z" fill="#C1491A"/>
<path d="M5.6599 25.7396C6.47147 25.7396 7.12938 25.0817 7.12938 24.2702C7.12938 23.4586 6.47147 22.8008 5.6599 22.8008C4.84834 22.8008 4.19043 23.4586 4.19043 24.2702C4.19043 25.0817 4.84834 25.7396 5.6599 25.7396Z" fill="#C1491A"/>
<path d="M26.3406 9.19659C27.1521 9.19659 27.81 8.53872 27.81 7.7272C27.81 6.91568 27.1521 6.25781 26.3406 6.25781C25.529 6.25781 24.8711 6.91568 24.8711 7.7272C24.8711 8.53872 25.529 9.19659 26.3406 9.19659Z" fill="#C1491A"/>
<path d="M13.8887 6.55859L16.6744 18.53" stroke="#C1491A" stroke-width="0.757895" stroke-miterlimit="10" stroke-linecap="round"/>
</g>
<defs>
<clipPath id="clip0_394_27062">
<rect width="32" height="32" fill="white"/>
</clipPath>
</defs>
</svg>
