<svg width="150" height="150" viewBox="0 0 150 150" fill="none" xmlns="http://www.w3.org/2000/svg">
<path d="M44.1916 24.2798C42.6273 24.8993 42.5777 27.2288 44.1939 27.8071C45.0394 28.1096 46.1664 27.9221 47.0513 27.9221H52.771H89.7902H100.435C101.63 27.9221 103.561 28.3129 104.477 27.344C105.587 26.1716 104.807 24.3313 103.295 24.1756C99.561 23.7908 95.6098 24.1584 91.8556 24.1584H58.3318H48.6401C47.3354 24.1584 45.4179 23.7943 44.1916 24.2798Z" fill="#858585"/>
<path d="M44.0736 33.2596C42.5679 33.8938 42.6692 36.3752 44.2317 36.8407C45.0981 37.099 46.1945 36.9154 47.088 36.9154H52.9597H89.9355H100.568C101.716 36.9154 103.614 37.3199 104.499 36.3602C105.541 35.2309 104.848 33.3232 103.425 33.1507C102.132 32.994 100.758 33.1319 99.4572 33.1319H91.8398H58.1966H48.3576C47.1015 33.1319 45.2532 32.7627 44.0736 33.2596Z" fill="#858585"/>
<path d="M44.0431 41.2609C42.5798 41.8842 42.6779 44.3826 44.2002 44.8394C45.0657 45.0992 46.1661 44.9139 47.0593 44.9139H52.9376H89.7965H100.441C101.614 44.9139 103.604 45.3305 104.505 44.3307C105.519 43.2063 104.879 41.3238 103.46 41.1521C102.166 40.9956 100.79 41.1334 99.4878 41.1334H91.7029H58.1805H48.3303C47.0779 41.1334 45.2175 40.7609 44.0431 41.2609Z" fill="#858585"/>
<path d="M43.0058 50.3671C42.9971 50.3766 42.9882 50.5595 43.0588 50.4824C43.0676 50.4729 43.0764 50.29 43.0058 50.3671ZM44.2225 51.8103C44.8095 52.0791 45.4947 51.9835 46.1267 51.9835H49.4592H61.6782H103.572C102.985 51.7147 102.3 51.8103 101.668 51.8103H98.1764H86.1161H44.2225Z" fill="#858585"/>
<path d="M44.3264 58.221C42.6498 58.7248 42.5246 61.1264 44.1687 61.7853C45.1469 62.1774 46.601 61.9073 47.6381 61.9073H55.2082C56.3194 61.9073 57.9738 62.2224 58.9908 61.6907C60.6704 60.8124 60.1106 58.4495 58.3624 58.162C57.3499 57.9955 56.2319 58.1268 55.2082 58.1268H49.2152C47.7151 58.1268 45.7724 57.7864 44.3264 58.221Z" fill="#858585"/>
<path d="M89.1563 58.2473C87.5295 58.9109 87.6539 61.3056 89.3115 61.8073C90.3899 62.1338 91.7808 61.9014 92.8962 61.9014H100.221C101.344 61.9014 103.1 62.2474 104.103 61.6431C105.488 60.8088 105.216 58.5712 103.65 58.1902C102.588 57.9318 101.308 58.1255 100.221 58.1255H93.3638C92.1289 58.1255 90.3165 57.7741 89.1563 58.2473Z" fill="#858585"/>
<path d="M44.1766 66.1846C42.7284 66.5652 42.5493 68.3587 44.0193 68.8318C44.9859 69.1429 46.4519 68.9272 47.4793 68.9272H55.3485C56.4436 68.9272 58.1227 69.1812 59.1109 68.74C60.6012 68.0747 60.0968 66.3346 58.4962 66.1282C57.4362 65.9915 56.2631 66.1007 55.1911 66.1007H48.8958C47.4683 66.1007 45.5415 65.8257 44.1766 66.1846Z" fill="#858585"/>
<path d="M33.9306 11.0505C33.859 11.1179 34.0288 11.1094 34.0376 11.1011C34.1092 11.0336 33.9394 11.0421 33.9306 11.0505Z" fill="#E3702D"/>
<path d="M89.0863 66.198C87.6805 66.6426 87.5953 68.4398 89.088 68.8323C90.148 69.1112 91.5817 68.9158 92.6873 68.9158H100.36C101.434 68.9158 103.34 69.2121 104.258 68.6931C105.585 67.9438 105.012 66.3265 103.492 66.1305C102.388 65.988 101.164 66.1031 100.047 66.1031H93.4703C92.1871 66.1031 90.2911 65.817 89.0863 66.198Z" fill="#858585"/>
<path d="M32.1374 136.829L32.1373 136.829C31.6336 136.125 31.4367 135.366 31.3471 134.818C31.2539 134.249 31.2431 133.69 31.2529 133.234C31.2625 132.785 31.2953 132.343 31.3204 132.003L31.3223 131.978C31.351 131.59 31.3652 131.376 31.3652 131.233V120.634V80.6492V31.5111V19.9492C31.3652 19.8032 31.3586 19.6778 31.3489 19.4934C31.3423 19.3685 31.3343 19.2165 31.3259 19.0128C31.3092 18.6064 31.2962 18.0393 31.3692 17.4483C31.4417 16.8618 31.6182 16.0735 32.1073 15.3193C32.6373 14.502 33.4278 13.8909 34.418 13.5779L32.1374 136.829ZM32.1374 136.829C32.819 137.782 33.7614 138.236 34.4951 138.458C35.2237 138.679 35.9554 138.736 36.5327 138.748C37.1249 138.76 37.7043 138.725 38.1503 138.695C38.2352 138.689 38.3133 138.684 38.3855 138.679C38.7477 138.654 38.9604 138.639 39.124 138.639H52.8576H95.9974H108.438H111.993C112.078 138.639 112.178 138.643 112.361 138.651L112.363 138.651C112.523 138.657 112.748 138.666 112.983 138.665C113.426 138.664 114.169 138.632 114.939 138.328L114.939 138.328M32.1374 136.829L114.939 138.328M114.939 138.328C117.16 137.451 117.583 135.319 117.676 134.306C117.728 133.731 117.711 133.179 117.692 132.773C117.683 132.587 117.676 132.443 117.669 132.324C117.658 132.13 117.651 132.005 117.651 131.875V119.831V69.0873V30.8687V20.9126C117.651 20.7432 117.666 20.517 117.692 20.1326L117.692 20.1282C117.715 19.7857 117.745 19.3383 117.749 18.8813C117.757 18.1156 117.726 16.608 116.858 15.3522L116.858 15.3519M114.939 138.328L116.858 15.3519M116.858 15.3519C115.596 13.5248 113.483 13.3031 112.46 13.2599M116.858 15.3519L112.46 13.2599M112.46 13.2599C111.847 13.2341 111.25 13.264 110.788 13.2915M112.46 13.2599L110.788 13.2915M110.788 13.2915C110.67 13.2986 110.564 13.3052 110.467 13.3112M110.788 13.2915L110.467 13.3112M110.467 13.3112C110.134 13.3318 109.918 13.3452 109.731 13.3452M110.467 13.3112L109.731 13.3452M109.731 13.3452H95.9974M109.731 13.3452H95.9974M95.9974 13.3452H53.827M95.9974 13.3452H53.827M53.827 13.3452H41.0628M53.827 13.3452H41.0628M41.0628 13.3452H37.3467M41.0628 13.3452H37.3467M37.3467 13.3452C37.2359 13.3452 37.1122 13.341 36.9222 13.3344M37.3467 13.3452L36.9222 13.3344M36.9222 13.3344L36.9162 13.3342M36.9222 13.3344L36.9162 13.3342M36.9162 13.3342C36.745 13.3282 36.5186 13.3202 36.2839 13.3206M36.9162 13.3342L36.2839 13.3206M36.2839 13.3206C35.8261 13.3213 35.1404 13.3496 34.4183 13.5778L36.2839 13.3206Z" stroke="white" stroke-width="5.5"/>
<path d="M44.0284 75.2004C42.5268 75.6829 42.7472 77.432 44.1857 77.8398C45.2324 78.1366 46.703 77.93 47.802 77.93H55.5112C56.5925 77.93 58.3233 78.1958 59.2575 77.6721C60.4705 76.9919 60.146 75.3569 58.6576 75.1344C57.5643 74.9709 56.3068 75.1051 55.1965 75.1051H48.4313C47.1486 75.1051 45.2305 74.8142 44.0284 75.2004Z" fill="#858585"/>
<path d="M86.8865 75.1981C85.5405 75.7828 85.7949 77.456 87.1927 77.8298C88.4074 78.1548 90.0804 77.9144 91.348 77.9144H100.122C101.349 77.9144 103.387 78.2452 104.398 77.5512C105.473 76.8145 105.036 75.3057 103.662 75.0945C102.401 74.9007 100.941 75.065 99.6598 75.065H91.5019H88.4234C87.9286 75.065 87.3417 75.0005 86.8865 75.1981Z" fill="#858585"/>
<path d="M43.0058 43.4849C42.9971 43.4949 42.9882 43.6869 43.0588 43.606C43.0676 43.596 43.0764 43.404 43.0058 43.4849ZM104.894 43.4849C104.885 43.4949 104.877 43.6869 104.947 43.606C104.956 43.596 104.965 43.404 104.894 43.4849Z" fill="#E3702D"/>
<path d="M44.0405 48.2788C42.6028 48.9281 42.6548 51.3757 44.1976 51.8388C45.0629 52.0987 46.1631 51.9134 47.0561 51.9134H53.092H89.9427H100.585C101.719 51.9134 103.647 52.3236 104.512 51.3585C105.523 50.2297 104.864 48.3218 103.444 48.15C102.15 47.9934 100.775 48.1313 99.4731 48.1313H91.8488H58.016H48.3268C47.0796 48.1313 45.2026 47.7539 44.0405 48.2788Z" fill="#858585"/>
<path d="M75.3702 55C75.572 55.0979 75.6207 55.107 75.8553 55.1429C75.6535 55.045 75.605 55.0359 75.3702 55Z" fill="#E3702D"/>
<path d="M44.1928 101.186C42.6969 101.637 42.5106 103.521 44.1928 103.884C45.058 104.071 46.1579 103.938 47.0507 103.938H52.9265H89.928H100.568C101.702 103.938 103.629 104.233 104.494 103.539C105.538 102.701 104.862 101.298 103.426 101.121C102.156 100.965 100.741 101.095 99.4563 101.095H91.8337H58.3258H48.4799C47.2217 101.095 45.375 100.83 44.1928 101.186Z" fill="#858585"/>
<path d="M44.0408 119.19C42.6531 119.632 42.6531 121.393 44.0408 121.834C44.7795 122.069 45.8127 121.93 46.5939 121.93H52.1843H86.8444H96.5876C97.651 121.93 99.5286 122.221 100.385 121.616C101.547 120.795 100.963 119.287 99.4626 119.119C98.3265 118.992 97.0949 119.095 95.9487 119.095H89.0806H57.4552H48.1912C46.9757 119.095 45.1812 118.828 44.0408 119.19Z" fill="#858585"/>
<path fill-rule="evenodd" clip-rule="evenodd" d="M75 58.5C65.8873 58.5 58.5 65.8873 58.5 75C58.5 84.1127 65.8873 91.5 75 91.5C84.1127 91.5 91.5 84.1127 91.5 75C91.5 65.8873 84.1127 58.5 75 58.5ZM53 75C53 62.8497 62.8497 53 75 53C87.1503 53 97 62.8497 97 75C97 87.1503 87.1503 97 75 97C62.8497 97 53 87.1503 53 75Z" fill="#E3702D"/>
<path fill-rule="evenodd" clip-rule="evenodd" d="M77.75 66.75C77.75 65.2312 76.5188 64 75 64C73.4812 64 72.25 65.2312 72.25 66.75V75C72.25 76.5188 73.4812 77.75 75 77.75C76.5188 77.75 77.75 76.5188 77.75 75V66.75ZM74.9863 80.5C73.4751 80.5 72.25 81.7312 72.25 83.25C72.25 84.7688 73.4751 86 74.9863 86H75.0137C76.5249 86 77.75 84.7688 77.75 83.25C77.75 81.7312 76.5249 80.5 75.0137 80.5H74.9863Z" fill="#E3702D"/>
</svg>
