<svg width="24" height="24" viewBox="0 0 24 24" fill="none" xmlns="http://www.w3.org/2000/svg">
<path fill-rule="evenodd" clip-rule="evenodd" d="M12 5.45455C8.38505 5.45455 5.45455 8.38505 5.45455 12C5.45455 15.615 8.38505 18.5455 12 18.5455C15.615 18.5455 18.5455 15.615 18.5455 12C18.5455 8.38505 15.615 5.45455 12 5.45455ZM4 12C4 7.58172 7.58172 4 12 4C16.4183 4 20 7.58172 20 12C20 16.4183 16.4183 20 12 20C7.58172 20 4 16.4183 4 12Z" fill="#E3702D"/>
<path fill-rule="evenodd" clip-rule="evenodd" d="M11.8333 7C12.2935 7 12.6666 7.31339 12.6666 7.69998V11.4673L15.5392 12.6738C15.9508 12.8467 16.1177 13.2671 15.9118 13.6129C15.706 13.9587 15.2055 14.0988 14.7938 13.9259L11.4606 12.526C11.1783 12.4074 11 12.165 11 11.8999V7.69998C11 7.31339 11.3731 7 11.8333 7Z" fill="#E3702D"/>
</svg>
