<svg width="24" height="24" viewBox="0 0 24 24" fill="none" xmlns="http://www.w3.org/2000/svg">
<path fill-rule="evenodd" clip-rule="evenodd" d="M10.6354 6.18455C9.59334 7.22398 8.71433 8.37038 8.08099 9.46179L8.08008 9.46335C7.37502 10.6733 7 11.7718 7 12.5609C7 15.5779 9.26513 18 12 18C14.7018 18 17 15.5758 17 12.5636C17 11.9891 16.7183 11.0143 16.1958 9.94216M10.6354 6.18455C11.2228 6.77149 11.7787 7.39672 12.3036 8.06532L13.1092 9.09152L13.8908 8.04699C14.0792 7.7953 14.2683 7.55083 14.4592 7.3312C15.1476 8.08744 15.7495 9.02667 16.1957 9.94214M9.57619 4.42528C10.1784 3.84992 11.1111 3.86572 11.6997 4.42802L11.7007 4.42894C12.179 4.88715 12.6392 5.36734 13.0811 5.87145C13.1794 5.76344 13.2811 5.65757 13.3858 5.55629L13.3901 5.55207L13.3902 5.55209C13.9891 4.97936 14.9285 4.97932 15.5272 5.55947L15.5288 5.56108C16.5585 6.56354 17.4053 7.85898 17.9935 9.06582L17.9935 9.06585C18.5585 10.2248 19 11.5304 19 12.5636C19 16.5292 15.9518 20 12 20C8.0063 20 5 16.5216 5 12.5609C5 11.2503 5.57832 9.78442 6.35158 8.45722C7.14923 7.08285 8.2653 5.66576 9.57963 4.42201L10.267 5.14835L9.57619 4.42528Z" fill="white"/>
<path d="M13.8886 15.2894C13.3235 15.6722 12.7235 15.8636 12.0458 15.8636C10.3556 15.8636 9.00024 14.7535 8.99756 12.8805C8.99756 12.0575 9.45292 11.3247 10.3583 10.1627C10.5297 9.94395 10.8511 9.94669 11.0199 10.1654C11.4699 10.7478 12.2601 11.7732 12.702 12.3474C12.8681 12.5634 13.1868 12.5688 13.3636 12.361L14.0386 11.5599C14.2127 11.3521 14.5208 11.3685 14.6413 11.6146C15.319 12.8778 15.0163 14.4855 13.8886 15.2894Z" fill="white"/>
</svg>
