<svg width="150" height="150" viewBox="0 0 150 150" fill="none" xmlns="http://www.w3.org/2000/svg">
<path fill-rule="evenodd" clip-rule="evenodd" d="M64.3024 68.7285C66.7758 66.0837 70.2059 64.4401 73.7448 63.9294C76.1615 63.5809 78.8114 63.7576 81.1453 64.4633C83.1018 65.055 85.1231 66.0792 86.6957 67.3983C95.1881 74.5204 94.2249 88.4321 84.6143 94.0961C82.8294 95.1483 80.8898 95.8548 78.8327 96.1272C76.0285 96.4986 73.4279 96.3528 70.7383 95.4159C68.5898 94.6675 66.6424 93.5138 64.9601 91.9628C58.4234 85.9367 58.3172 75.1283 64.3024 68.7285ZM67.8616 89.6736C59.6743 82.8304 63.9169 69.1449 74.1237 67.5273C76.0021 67.2296 78.1116 67.3176 79.9221 67.9015C84.1401 69.2616 87.6836 72.8492 88.6155 77.3089C90.0677 84.2569 85.2529 91.5195 78.2985 92.5365C76.2856 92.8309 73.9671 92.6975 72.0363 92.0519C70.5106 91.5419 69.099 90.7078 67.8616 89.6736Z" fill="white"/>
<path fill-rule="evenodd" clip-rule="evenodd" d="M46.5347 64.8844V61.687C46.7181 61.687 46.9013 61.6882 47.0841 61.6893H47.0841C48.2673 61.6969 49.4372 61.7044 50.5814 61.3926C51.3671 61.1786 52.1267 60.8617 52.8071 60.4718C56.6833 58.251 56.6682 54.6986 56.6534 51.2214V51.2206C56.6525 51.0067 56.6515 50.793 56.6515 50.58V44.0168C56.6515 43.4507 56.6717 42.8695 56.6922 42.281V42.2808V42.2807C56.7939 39.3529 56.9019 36.2446 54.5622 33.9198C52.9975 32.365 50.7688 31.4564 48.3557 31.2558C47.0708 31.1488 45.7463 31.1761 44.4341 31.203C43.8489 31.215 43.2661 31.227 42.6903 31.227H32.1688C31.9614 31.227 31.7547 31.2266 31.5487 31.2262C27.6009 31.2189 23.9311 31.2121 21.0777 33.9196C19.0011 35.89 19.0082 38.117 19.0159 40.5405C19.0164 40.6888 19.0169 40.8379 19.0169 40.9877V51.0849C19.0169 51.5097 19.0001 51.9455 18.9832 52.3865C18.9212 53.999 18.8565 55.6805 19.5988 57.1432C20.7386 59.3892 23.1755 61.1705 26.0987 61.6089C26.9286 61.7333 27.8014 61.7159 28.659 61.6987C28.9547 61.6928 29.2487 61.687 29.5384 61.687C29.9251 61.687 30.3777 61.6601 30.8579 61.6316C32.1531 61.5548 33.6495 61.466 34.5968 61.86C35.3464 62.1717 35.9966 62.766 36.6036 63.3209L36.6036 63.3209L36.6037 63.321C36.816 63.515 37.0229 63.7042 37.227 63.8747C38.0107 64.5296 38.7683 65.2045 39.526 65.8794C40.6218 66.8554 41.7177 67.8316 42.8926 68.7476C43.7892 69.4465 45.4929 70.1333 46.2961 68.9134C46.5813 68.4804 46.5615 67.9296 46.5433 67.4239V67.4238V67.4238C46.5389 67.3033 46.5347 67.1853 46.5347 67.0722V64.8844ZM40.0301 62.1468L40.0302 62.1468C41.131 63.1016 42.2378 64.0616 43.4267 64.9123V61.0722L43.4269 61.0039C43.4276 60.3704 43.4283 59.7591 44.0622 59.3081C44.8403 58.7543 46.1273 58.8153 47.2739 58.8696C47.7049 58.89 48.1161 58.9095 48.4729 58.895C50.128 58.8279 51.6417 58.0085 52.5807 56.8982C53.6266 55.6615 53.5797 54.0664 53.5361 52.5817C53.5275 52.2898 53.519 52.0022 53.519 51.7224V42.0386C53.519 41.6793 53.533 41.31 53.5472 40.936C53.5995 39.557 53.6543 38.113 53.0187 36.8628C52.2741 35.3985 50.3735 34.246 48.4729 34.0551C47.2056 33.928 45.8791 33.9616 44.5708 33.9947C43.9815 34.0096 43.396 34.0244 42.8212 34.0244H31.9215C31.5324 34.0244 31.136 34.0168 30.7359 34.009C28.627 33.9684 26.4178 33.9258 24.6581 34.9909C22.4533 36.3255 22.4348 38.3364 22.4348 40.369V51.2215C22.4348 51.5875 22.4157 51.9701 22.3963 52.3604C22.3308 53.678 22.2609 55.0832 22.9038 56.2303C24.5196 59.1133 28.1501 59.0182 31.4842 58.9309C32.0457 58.9162 32.5989 58.9017 33.1326 58.9017C33.3541 58.9017 33.5895 58.8928 33.8312 58.8837H33.8313H33.8313H33.8313C34.5528 58.8565 35.3301 58.8271 35.9584 59.0256C36.7107 59.2634 37.3308 59.8147 37.9045 60.3247L37.9045 60.3247C38.0663 60.4685 38.2243 60.609 38.3806 60.7383C38.9352 61.1971 39.482 61.6713 40.0301 62.1468ZM47.7197 42.3762C49.0973 42.7506 49.3511 44.3715 47.9166 44.8625C46.9626 45.1889 45.6032 45.1113 44.3872 45.0419C43.9117 45.0147 43.4582 44.9888 43.0594 44.9888H32.3134C31.9917 44.9888 31.5924 45.0137 31.1568 45.0408C29.8123 45.1244 28.1219 45.2296 27.3011 44.6923C25.8453 43.7393 27.2693 42.3458 28.6638 42.2726C31.4977 42.1237 34.3758 42.1713 37.2415 42.2187C38.6453 42.2419 40.0461 42.2651 41.4374 42.2651C41.9923 42.2651 42.6056 42.2324 43.2411 42.1986C44.7758 42.1169 46.4395 42.0283 47.7197 42.3762ZM47.9457 50.5646C49.2041 50.1511 49.1771 48.6743 47.9457 48.2551C47.4684 48.0926 46.8956 48.1077 46.3607 48.1219C46.2133 48.1257 46.0688 48.1296 45.93 48.1296H41.8806C40.4133 48.1296 38.9262 48.0956 37.4331 48.0616C34.3805 47.992 31.3024 47.9218 28.3152 48.1395C27.0336 48.2329 26.0631 49.5371 27.2164 50.3719C27.9678 50.9159 29.7074 50.8045 31.0468 50.7187C31.4744 50.6914 31.8613 50.6666 32.1621 50.6666H43.0954C43.4998 50.6666 43.9633 50.6939 44.4499 50.7226C45.6569 50.7938 47.0056 50.8734 47.9457 50.5646Z" fill="#FFB691"/>
<path fill-rule="evenodd" clip-rule="evenodd" d="M74.6829 98.3003C66.7319 99.3862 59.803 104.029 57.2059 111.94C56.127 115.227 55.3059 119.554 58.4631 122.003C60.5348 123.61 63.3161 123.501 65.9096 123.399C66.5287 123.375 67.1371 123.351 67.7226 123.351H82.8032C83.5651 123.351 84.3458 123.377 85.1333 123.404C87.0002 123.467 88.9056 123.532 90.6915 123.249C91.417 123.134 92.13 122.962 92.7794 122.608C97.3782 120.105 95.9658 113.698 94.1118 109.845C90.74 102.837 82.7519 97.1984 74.6829 98.3003ZM60.9105 112.5C63.0008 106.997 67.9417 103.04 73.7419 102.133C79.994 101.157 86.375 104.127 89.7321 109.476C90.9827 111.469 91.9358 113.852 92.0895 116.223C92.1809 117.632 91.7837 119.031 90.2494 119.388C88.7616 119.735 87.0246 119.643 85.3674 119.555C84.6457 119.517 83.9392 119.48 83.275 119.48H68.6266H63.7439C63.6338 119.48 63.5224 119.481 63.4101 119.482C62.5794 119.491 61.7035 119.5 60.9977 119.013C59.0676 117.678 60.2522 114.234 60.9105 112.5Z" fill="white"/>
<path fill-rule="evenodd" clip-rule="evenodd" d="M116.5 71C118.929 71 121.335 70.5344 123.58 69.6298C125.824 68.7253 127.864 67.3994 129.581 65.7279C131.299 64.0565 132.662 62.0722 133.592 59.8883C134.521 57.7044 135 55.3638 135 53C135 50.6362 134.521 48.2956 133.592 46.1117C132.662 43.9278 131.299 41.9435 129.581 40.2721C127.864 38.6006 125.824 37.2748 123.58 36.3702C121.335 35.4656 118.929 35 116.5 35C111.593 35 106.888 36.8964 103.419 40.2721C99.9491 43.6477 98 48.2261 98 53C98 57.7739 99.9491 62.3523 103.419 65.7279C106.888 69.1036 111.593 71 116.5 71ZM116.023 60.28L124.943 49.8653C125.687 48.9967 125.568 47.6857 124.68 46.9655C123.825 46.2722 122.573 46.3859 121.857 47.2218L114.305 56.038L111.144 52.9617C110.358 52.196 109.104 52.1958 108.317 52.9614C107.5 53.7571 107.5 55.0709 108.317 55.8666L112.991 60.414L114.582 61.962L116.023 60.28Z" fill="#E3702D"/>
<path d="M124.69 50.0662L115.974 60.3431L114.568 62L113.016 60.4751L108.443 55.9818C107.65 55.2031 107.65 53.9258 108.443 53.1471C109.216 52.3875 110.455 52.3876 111.228 53.1474L114.297 56.1643L121.655 47.4914C122.357 46.6635 123.593 46.5512 124.433 47.239C125.294 47.9439 125.41 49.2177 124.69 50.0662Z" fill="white"/>
<path d="M69.7744 78.0992C66.7413 78.9289 67.8999 83.7107 70.9657 82.91C73.9889 82.1206 72.6885 77.3019 69.7744 78.0992Z" fill="white"/>
<path d="M80.98 78.1165C78.077 79.0639 79.421 83.7392 82.4056 82.881C85.3634 82.0301 83.8073 77.1936 80.98 78.1165Z" fill="white"/>
</svg>
