<svg width="24" height="24" viewBox="0 0 24 24" fill="none" xmlns="http://www.w3.org/2000/svg">
<path fill-rule="evenodd" clip-rule="evenodd" d="M4 6C4 4.89543 4.89543 4 6 4H18C19.1046 4 20 4.89543 20 6V12C20 13.1046 19.1046 14 18 14H6C4.89543 14 4 13.1046 4 12V6ZM18 6H6V12H8V10C8 8.89543 8.89543 8 10 8H14C15.1046 8 16 8.89543 16 10V12H18V6ZM14 12V10H10V12H14ZM9.57129 15C10.1236 15 10.5713 15.4477 10.5713 16C10.5713 17.1125 9.94701 18.1309 8.95563 18.6356L8.45371 18.8911C7.96155 19.1417 7.35943 18.9459 7.10885 18.4537C6.85827 17.9615 7.05412 17.3594 7.54628 17.1089L8.0482 16.8533C8.36917 16.6899 8.57129 16.3602 8.57129 16C8.57129 15.4477 9.019 15 9.57129 15ZM12.0713 15C12.6236 15 13.0713 15.4477 13.0713 16V19C13.0713 19.5523 12.6236 20 12.0713 20C11.519 20 11.0713 19.5523 11.0713 19V16C11.0713 15.4477 11.519 15 12.0713 15ZM14.9284 15C15.4807 15 15.9284 15.4477 15.9284 16C15.9284 16.4397 16.1359 16.8535 16.4883 17.1166L16.5982 17.1987C17.0408 17.5291 17.1317 18.1557 16.8013 18.5982C16.4709 19.0408 15.8443 19.1317 15.4018 18.8013L15.2918 18.7192C14.4338 18.0787 13.9284 17.0707 13.9284 16C13.9284 15.4477 14.3761 15 14.9284 15Z" fill="white"/>
</svg>
