<svg width="24" height="24" viewBox="0 0 24 24" fill="none" xmlns="http://www.w3.org/2000/svg">
<path fill-rule="evenodd" clip-rule="evenodd" d="M12.0002 4.22217C9.85244 4.22217 8.11133 5.96328 8.11133 8.11106C8.11133 10.2588 9.85244 11.9999 12.0002 11.9999C14.148 11.9999 15.8891 10.2588 15.8891 8.11106C15.8891 5.96328 14.148 4.22217 12.0002 4.22217Z" fill="#E3702D"/>
<path fill-rule="evenodd" clip-rule="evenodd" d="M8.88889 13.5557C7.85749 13.5557 6.86834 13.9654 6.13903 14.6947C5.40972 15.424 5 16.4132 5 17.4446V19.0001C5 19.4297 5.34822 19.7779 5.77778 19.7779H18.2222C18.6518 19.7779 19 19.4297 19 19.0001V17.4446C19 16.4132 18.5903 15.424 17.861 14.6947C17.1317 13.9654 16.1425 13.5557 15.1111 13.5557H8.88889Z" fill="#E3702D"/>
</svg>
