<svg width="24" height="24" viewBox="0 0 24 24" fill="none" xmlns="http://www.w3.org/2000/svg">
<path fill-rule="evenodd" clip-rule="evenodd" d="M6.13903 15.0984C6.86834 14.3951 7.85749 14 8.88889 14H15.1111C16.1425 14 17.1317 14.3951 17.861 15.0984C18.5903 15.8016 19 16.7554 19 17.75V19.25C19 19.6642 18.6518 20 18.2222 20C17.7927 20 17.4444 19.6642 17.4444 19.25V17.75C17.4444 17.1533 17.1986 16.581 16.761 16.159C16.3234 15.7371 15.7299 15.5 15.1111 15.5H8.88889C8.27005 15.5 7.67656 15.7371 7.23897 16.159C6.80139 16.581 6.55556 17.1533 6.55556 17.75V19.25C6.55556 19.6642 6.20733 20 5.77778 20C5.34822 20 5 19.6642 5 19.25V17.75C5 16.7554 5.40972 15.8016 6.13903 15.0984Z" fill="white"/>
<path fill-rule="evenodd" clip-rule="evenodd" d="M12 5.6C10.6745 5.6 9.6 6.67452 9.6 8C9.6 9.32548 10.6745 10.4 12 10.4C13.3255 10.4 14.4 9.32548 14.4 8C14.4 6.67452 13.3255 5.6 12 5.6ZM8 8C8 5.79086 9.79086 4 12 4C14.2091 4 16 5.79086 16 8C16 10.2091 14.2091 12 12 12C9.79086 12 8 10.2091 8 8Z" fill="white"/>
</svg>
