<svg width="24" height="24" viewBox="0 0 24 24" fill="none" xmlns="http://www.w3.org/2000/svg">
<path fill-rule="evenodd" clip-rule="evenodd" d="M5.85693 7.35278C5.85693 5.69593 7.20008 4.35278 8.85693 4.35278H15.1426C16.7995 4.35278 18.1426 5.69593 18.1426 7.35278V11.3528C18.1426 11.3948 18.1401 11.4363 18.135 11.4769C19.216 11.8215 20 12.8444 20 14.0528V19.4528C20 19.9498 19.602 20.3528 19.1111 20.3528C18.6202 20.3528 18.2222 19.9498 18.2222 19.4528V18.1028H5.77778V19.4528C5.77778 19.9498 5.37981 20.3528 4.88889 20.3528C4.39797 20.3528 4 19.9498 4 19.4528V14.0528C4 12.8446 4.78376 11.8218 5.86458 11.4771C5.85953 11.4363 5.85693 11.3949 5.85693 11.3528V7.35278ZM8.85693 6.35278C8.30465 6.35278 7.85693 6.8005 7.85693 7.35278V10.3528H8.99951V9.35278C8.99951 8.8005 9.44723 8.35278 9.99951 8.35278H13.9995C14.5518 8.35278 14.9995 8.8005 14.9995 9.35278V10.3528H16.1426V7.35278C16.1426 6.8005 15.6949 6.35278 15.1426 6.35278H8.85693ZM18.2222 16.3028H5.77778V14.0528C5.77778 13.5557 6.17575 13.1528 6.66667 13.1528H17.3333C17.8243 13.1528 18.2222 13.5557 18.2222 14.0528V16.3028Z" fill="white"/>
</svg>
