<svg width="24" height="24" viewBox="0 0 24 24" fill="none" xmlns="http://www.w3.org/2000/svg">
<path d="M9.26363 5.52493C9.524 5.5249 9.78124 5.57326 10.0174 5.66662C10.2536 5.75999 10.4629 5.89611 10.6309 6.0655C10.7989 6.23488 10.9215 6.43345 10.9901 6.64733C11.1003 6.99111 11.3287 7.34667 11.6861 7.39757L11.959 7.43644C12.4269 7.50307 12.8821 7.18554 12.822 6.7168C12.8135 6.65044 12.8024 6.58426 12.7887 6.51838C13.1273 6.33783 13.5271 6.25896 13.9244 6.29431C14.3218 6.32967 14.6938 6.47722 14.9812 6.71347C15.2686 6.94972 15.4549 7.26107 15.5105 7.59794C15.566 7.93481 15.4876 8.27781 15.2876 8.57231H5.68484C5.54597 8.57218 5.40904 8.54453 5.28489 8.49154C5.16075 8.43855 5.05279 8.36169 4.96957 8.26702C4.88635 8.17236 4.83015 8.0625 4.80542 7.94614C4.78069 7.82978 4.7881 7.71011 4.82709 7.59662C4.86607 7.48312 4.93554 7.37891 5.03 7.29223C5.12447 7.20556 5.24133 7.1388 5.37134 7.09723C5.50135 7.05567 5.64094 7.04045 5.77905 7.05277C5.91716 7.06509 6.05001 7.10462 6.16708 7.16823C6.28759 7.23396 6.42487 7.27411 6.56737 7.28532C6.70988 7.29652 6.85347 7.27845 6.98608 7.23263C7.11869 7.1868 7.23645 7.11456 7.32949 7.02196C7.42253 6.92936 7.48812 6.81911 7.52076 6.70046C7.61299 6.36585 7.83536 6.06763 8.15176 5.85423C8.46816 5.64082 8.86 5.52477 9.26363 5.52493ZM10.62 4.22751C9.81144 3.94542 8.90963 3.92496 8.08458 4.16999C7.25954 4.41502 6.56828 4.90861 6.14114 5.55769C5.56675 5.47317 4.97565 5.55017 4.45721 5.77705C3.93877 6.00393 3.52115 6.36835 3.26748 6.81524C3.01382 7.26212 2.93789 7.76718 3.05119 8.25406C3.16448 8.74095 3.46083 9.18319 3.89544 9.51395V18.4763C3.89544 18.8804 4.08397 19.268 4.41955 19.5537C4.75512 19.8395 5.21026 20 5.68484 20H14.6318C15.1064 20 15.5615 19.8395 15.8971 19.5537C16.2327 19.268 16.4212 18.8804 16.4212 18.4763H18.2106C18.6852 18.4763 19.1403 18.3158 19.4759 18.03C19.8115 17.7443 20 17.3567 20 16.9526V11.6197C20 11.2156 19.8115 10.828 19.4759 10.5423C19.1403 10.2565 18.6852 10.096 18.2106 10.096H16.4212V9.82631C16.9774 9.29008 17.2943 8.60432 17.3164 7.88914C17.3385 7.17396 17.0644 6.47495 16.5421 5.91456C16.0198 5.35418 15.2826 4.96813 14.4596 4.82404C13.6366 4.67996 12.7804 4.78702 12.0408 5.12648C11.6631 4.73025 11.1745 4.42113 10.62 4.22751ZM16.4212 11.6197H18.2106V16.9526H16.4212V11.6197ZM14.6318 10.096V18.4763H5.68484V10.096H14.6318ZM8.36893 11.6197C7.8748 11.6197 7.47423 12.0203 7.47423 12.5144V16.0579C7.47423 16.552 7.8748 16.9526 8.36893 16.9526C8.86306 16.9526 9.26363 16.552 9.26363 16.0579V12.5144C9.26363 12.0203 8.86306 11.6197 8.36893 11.6197ZM11.9477 11.6197C12.4419 11.6197 12.8424 12.0203 12.8424 12.5144V16.0579C12.8424 16.552 12.4419 16.9526 11.9477 16.9526C11.4536 16.9526 11.053 16.552 11.053 16.0579V12.5144C11.053 12.0203 11.4536 11.6197 11.9477 11.6197Z" fill="white"/>
</svg>
