<svg width="24" height="24" viewBox="0 0 24 24" fill="none" xmlns="http://www.w3.org/2000/svg">
<g clip-path="url(#clip0_439_684)">
<path fill-rule="evenodd" clip-rule="evenodd" d="M15 4C15.5523 4 16 4.35817 16 4.8V5H17.4444C18.8558 5 20 6.07265 20 7.39583V10V17.6042C20 18.9273 18.8558 20 17.4444 20H6.55556C5.14416 20 4 18.9273 4 17.6042V10V7.39583C4 6.07265 5.14416 5 6.55556 5H8V4.8C8 4.35817 8.44772 4 9 4C9.55228 4 10 4.35817 10 4.8V5H14V4.8C14 4.35817 14.4477 4 15 4ZM8 6.875V7.2C8 7.64183 8.44772 8 9 8C9.55228 8 10 7.64183 10 7.2V6.875H14V7.2C14 7.64183 14.4477 8 15 8C15.5523 8 16 7.64183 16 7.2V6.875H17.4444C17.7513 6.875 18 7.10819 18 7.39583V9H6V7.39583C6 7.10819 6.24873 6.875 6.55556 6.875H8ZM18 11V17.6042C18 17.8918 17.7513 18.125 17.4444 18.125H6.55556C6.24873 18.125 6 17.8918 6 17.6042V11H18Z" fill="white"/>
</g>
<defs>
<clipPath id="clip0_439_684">
<rect width="24" height="24" fill="white"/>
</clipPath>
</defs>
</svg>
