<svg width="24" height="24" viewBox="0 0 24 24" fill="none" xmlns="http://www.w3.org/2000/svg">
<path fill-rule="evenodd" clip-rule="evenodd" d="M12 6C8.68629 6 6 8.68629 6 12C6 15.3137 8.68629 18 12 18C15.3137 18 18 15.3137 18 12C18 11.4477 18.4477 11 19 11C19.5523 11 20 11.4477 20 12C20 16.4183 16.4183 20 12 20C7.58172 20 4 16.4183 4 12C4 7.58172 7.58172 4 12 4C12.5523 4 13 4.44772 13 5C13 5.55228 12.5523 6 12 6Z" fill="white"/>
<path fill-rule="evenodd" clip-rule="evenodd" d="M19.7071 6.29289C20.0977 6.68342 20.0977 7.31658 19.7071 7.70711L12.7071 14.7071C12.3414 15.0728 11.7572 15.0993 11.3598 14.7682L8.35984 12.2682C7.93556 11.9147 7.87824 11.2841 8.2318 10.8598C8.58537 10.4355 9.21593 10.3782 9.64021 10.7318L11.9387 12.6472L18.2929 6.29289C18.6834 5.90237 19.3166 5.90237 19.7071 6.29289Z" fill="white"/>
</svg>
