<svg width="24" height="24" viewBox="0 0 24 24" fill="none" xmlns="http://www.w3.org/2000/svg">
<path fill-rule="evenodd" clip-rule="evenodd" d="M5 6C4.44772 6 4 6.44772 4 7V16.3674V16.3675C3.99997 16.8548 4.10127 17.3361 4.29668 17.7829C4.49205 18.2297 4.77696 18.6319 5.13251 18.9675C5.48797 19.3029 5.9071 19.5654 6.36452 19.7417C6.81993 19.9173 7.30572 20.0047 7.79438 19.9998H14C15.6569 19.9998 17 18.6567 17 16.9998V15H17.3896C19.1846 15 20.6396 13.5449 20.6396 11.75C20.6396 9.95507 19.1846 8.5 17.3896 8.5H17V7C17 6.44772 16.5523 6 16 6H5ZM15 9.5V8H6V16.3675V16.3676C5.99998 16.5771 6.04343 16.7856 6.12914 16.9816C6.21491 17.1778 6.34194 17.3588 6.50526 17.513C6.66868 17.6672 6.86501 17.7912 7.08399 17.8756C7.30302 17.9601 7.53887 18.0026 7.77744 17.9999L7.78905 17.9997V17.9998H14C14.5523 17.9998 15 17.5521 15 16.9998V9.5ZM17 10.5H17.3896C18.08 10.5 18.6396 11.0596 18.6396 11.75C18.6396 12.4404 18.08 13 17.3896 13H17V10.5Z" fill="white"/>
</svg>
