<svg width="24" height="24" viewBox="0 0 24 24" fill="none" xmlns="http://www.w3.org/2000/svg">
<path fill-rule="evenodd" clip-rule="evenodd" d="M4 6.35278C4 7.09307 4.4022 7.73941 5 8.08522V16.6203C4.4022 16.9662 4 17.6125 4 18.3528C4 19.4574 4.89543 20.3528 6 20.3528C6.74028 20.3528 7.38663 19.9506 7.73244 19.3528H16.2676C16.6134 19.9506 17.2597 20.3528 18 20.3528C19.1046 20.3528 20 19.4574 20 18.3528C20 17.6125 19.5978 16.9662 19 16.6203V9.35278V8.08522C19.5978 7.73941 20 7.09307 20 6.35278C20 5.24821 19.1046 4.35278 18 4.35278C17.2597 4.35278 16.6134 4.75498 16.2676 5.35278H7.73244C7.38663 4.75498 6.74028 4.35278 6 4.35278C4.89543 4.35278 4 5.24821 4 6.35278ZM7.73244 17.3528H16.2676C16.4432 17.0492 16.6964 16.796 17 16.6203V9.35278V8.08522C16.6964 7.90958 16.4432 7.65641 16.2676 7.35278H7.73244C7.5568 7.65641 7.30363 7.90958 7 8.08522V16.6203C7.30363 16.796 7.5568 17.0492 7.73244 17.3528Z" fill="white"/>
</svg>
