<svg width="24" height="24" viewBox="0 0 24 24" fill="none" xmlns="http://www.w3.org/2000/svg">
<path fill-rule="evenodd" clip-rule="evenodd" d="M14.2023 15.7719C14.6798 15.414 14.8948 14.985 14.8948 14.5846C14.8948 14.1842 14.6798 13.7535 14.2014 13.3955C13.7239 13.0367 13.0228 12.7889 12.2133 12.7889C12.1728 12.7889 12.1325 12.786 12.0928 12.7804C11.0664 12.7217 10.1167 12.3842 9.38667 11.8363C8.58067 11.2314 8 10.3301 8 9.26146C8 8.19286 8.58067 7.29066 9.38667 6.68573C9.96632 6.2513 10.6849 5.94911 11.47 5.81364C11.4675 5.78705 11.4662 5.76026 11.4662 5.73333V4.86667C11.4662 4.63681 11.5576 4.41637 11.7201 4.25384C11.8826 4.09131 12.1031 4 12.3329 4C12.5628 4 12.7832 4.09131 12.9457 4.25384C13.1083 4.41637 13.1996 4.63681 13.1996 4.86667V5.73333C13.1996 5.7518 13.199 5.77021 13.1978 5.78854C14.6716 5.99839 15.9763 6.79558 16.5462 8.00393C16.5947 8.10693 16.6225 8.21848 16.6279 8.33222C16.6334 8.44595 16.6164 8.55964 16.5778 8.6668C16.5393 8.77396 16.4801 8.87248 16.4035 8.95674C16.3269 9.041 16.2345 9.10936 16.1315 9.1579C16.0285 9.20644 15.9169 9.23422 15.8032 9.23965C15.6895 9.24507 15.5758 9.22805 15.4686 9.18954C15.3615 9.15103 15.263 9.09179 15.1787 9.01521C15.0944 8.93863 15.0261 8.8462 14.9775 8.7432C14.6742 8.0958 13.7278 7.4666 12.4165 7.4666C11.6062 7.4666 10.9051 7.71446 10.4267 8.07326C9.94913 8.4312 9.73333 8.8602 9.73333 9.2606C9.73333 9.661 9.94913 10.0909 10.4267 10.4497C10.9051 10.8085 11.6053 11.0563 12.4157 11.0563C12.4562 11.0563 12.4965 11.0592 12.5362 11.0647C13.5626 11.1235 14.5123 11.461 15.2423 12.0089C16.0483 12.6138 16.6281 13.5151 16.6281 14.5837C16.6281 15.6523 16.0483 16.5545 15.2414 17.1586C14.7077 17.5592 14.0569 17.8473 13.3444 17.9962V18.7333C13.3444 18.9632 13.2531 19.1836 13.0906 19.3462C12.9281 19.5087 12.7076 19.6 12.4778 19.6C12.2479 19.6 12.0275 19.5087 11.865 19.3462C11.7024 19.1836 11.6111 18.9632 11.6111 18.7333V18.0793C10.0642 17.9107 8.67496 17.0985 8.08278 15.8404C7.98474 15.6325 7.97332 15.3942 8.05101 15.1778C8.1287 14.9615 8.28914 14.7849 8.49704 14.6869C8.70495 14.5888 8.94328 14.5774 9.15961 14.6551C9.37594 14.7328 9.55254 14.8932 9.65058 15.1011C9.95564 15.7494 10.902 16.3786 12.2133 16.3786C13.0236 16.3786 13.7239 16.1307 14.2023 15.7719Z" fill="white"/>
</svg>
