<svg width="24" height="24" viewBox="0 0 24 24" fill="none" xmlns="http://www.w3.org/2000/svg">
<path d="M12 6C13.93 6 15.5 7.57 15.5 9.5C15.5 11.43 13.93 13 12 13C10.07 13 8.5 11.43 8.5 9.5C8.5 7.57 10.07 6 12 6ZM13 14.91C14.2641 14.6763 15.4064 14.0071 16.2284 13.0188C17.0505 12.0305 17.5004 10.7855 17.5 9.5C17.5 6.46 15.04 4 12 4C8.96 4 6.5 6.46 6.5 9.5C6.49961 10.7855 6.94952 12.0305 7.77158 13.0188C8.59364 14.0071 9.73592 14.6763 11 14.91V17H10C9.45 17 9 17.45 9 18C9 18.55 9.45 19 10 19H11V20C11 20.55 11.45 21 12 21C12.55 21 13 20.55 13 20V19H14C14.55 19 15 18.55 15 18C15 17.45 14.55 17 14 17H13V14.91Z" fill="white"/>
</svg>
