<svg width="24" height="24" viewBox="0 0 24 24" fill="none" xmlns="http://www.w3.org/2000/svg">
<path fill-rule="evenodd" clip-rule="evenodd" d="M4.06756 5.43434C4.18673 5.16947 4.44414 5 4.72728 5H19.2727C19.5559 5 19.8133 5.16947 19.9324 5.43434C20.0516 5.69922 20.0109 6.01134 19.828 6.23429L14.1818 13.1196V19.25C14.1818 19.5099 14.0513 19.7513 13.8369 19.888C13.6225 20.0246 13.3547 20.0371 13.1293 19.9208L10.2202 18.4208C9.97382 18.2938 9.81818 18.0341 9.81818 17.75V13.1196L4.17196 6.23429C3.98912 6.01134 3.94839 5.69922 4.06756 5.43434ZM6.29477 6.5L11.1008 12.3607C11.2118 12.4961 11.2727 12.6677 11.2727 12.845V17.2865L12.7273 18.0365V12.845C12.7273 12.6677 12.7882 12.4961 12.8992 12.3607L17.7052 6.5H6.29477Z" fill="white"/>
</svg>
