<svg width="24" height="24" viewBox="0 0 24 24" fill="none" xmlns="http://www.w3.org/2000/svg">
<path d="M5 6V9.44432C5 9.78224 5.13424 10.1063 5.37318 10.3453C5.61212 10.5842 5.9362 10.7184 6.27412 10.7184H9.3124C9.65032 10.7184 9.97439 10.5842 10.2133 10.3453C10.4523 10.1063 10.5865 9.78224 10.5865 9.44432V6" stroke="white" stroke-width="2" stroke-linecap="round" stroke-linejoin="round"/>
<path d="M7.78613 6V18.1953" stroke="white" stroke-width="2" stroke-linecap="round" stroke-linejoin="round"/>
<path fill-rule="evenodd" clip-rule="evenodd" d="M14.8145 5.00241C14.5379 4.98318 14.2657 5.07965 14.063 5.26878C13.8602 5.45791 13.7451 5.72274 13.7451 6V13.7567C13.7451 13.7567 13.7451 13.7568 13.7451 13.7568V18.2092C13.7451 18.7615 14.1928 19.2092 14.7451 19.2092C15.2974 19.2092 15.7451 18.7615 15.7451 18.2092V14.7567H18.0634C18.5141 14.7567 18.9091 14.4553 19.028 14.0206C19.5388 12.1533 19.4779 10.1761 18.8538 8.34431C18.6161 7.44268 18.104 6.63677 17.3879 6.03843C16.6606 5.43073 15.76 5.06816 14.8145 5.00241ZM15.7451 12.7567V7.32233C15.8717 7.39486 15.9924 7.47869 16.1055 7.57319C16.5095 7.91082 16.7967 8.3674 16.926 8.87784C16.9329 8.90512 16.941 8.93211 16.9502 8.95871C17.3728 10.1822 17.478 11.4886 17.2619 12.7567H15.7451Z" fill="white"/>
</svg>
