<svg width="24" height="24" viewBox="0 0 24 24" fill="none" xmlns="http://www.w3.org/2000/svg">
<path fill-rule="evenodd" clip-rule="evenodd" d="M9.5 6.4C8.3402 6.4 7.4 7.3402 7.4 8.5C7.4 9.6598 8.3402 10.6 9.5 10.6C10.6598 10.6 11.6 9.6598 11.6 8.5C11.6 7.3402 10.6598 6.4 9.5 6.4ZM6 8.5C6 6.567 7.567 5 9.5 5C11.433 5 13 6.567 13 8.5C13 10.433 11.433 12 9.5 12C7.567 12 6 10.433 6 8.5Z" fill="#E3702D"/>
<path fill-rule="evenodd" clip-rule="evenodd" d="M14.0252 5.54002C14.1346 5.15591 14.5697 4.92426 14.997 5.02261C15.856 5.2203 16.6174 5.66936 17.1612 6.29898C17.7049 6.92859 18 7.70296 18 8.5C18 9.29704 17.7049 10.0714 17.1612 10.701C16.6174 11.3306 15.856 11.7797 14.997 11.9774C14.5697 12.0757 14.1346 11.8441 14.0252 11.46C13.9157 11.0759 14.1735 10.6848 14.6008 10.5864C15.1162 10.4678 15.573 10.1984 15.8993 9.82061C16.2255 9.44284 16.4026 8.97822 16.4026 8.5C16.4026 8.02178 16.2255 7.55716 15.8993 7.17939C15.573 6.80161 15.1162 6.53218 14.6008 6.41356C14.1735 6.31522 13.9157 5.92412 14.0252 5.54002Z" fill="#E3702D"/>
<path fill-rule="evenodd" clip-rule="evenodd" d="M16.0256 13.572C16.136 13.1643 16.5724 12.9191 17.0001 13.0244C17.8582 13.2355 18.6184 13.7123 19.1614 14.3798C19.7044 15.0473 19.9993 15.8678 20 16.7123L20 18.2376C20 18.6587 19.6418 19 19.2 19C18.7582 19 18.4001 18.6587 18.4001 18.2376L18.4001 16.7135C18.4001 16.7134 18.4001 16.7135 18.4001 16.7135C18.3996 16.2068 18.2227 15.7144 17.8969 15.3139C17.5711 14.9134 17.115 14.6274 16.6002 14.5007C16.1724 14.3954 15.9151 13.9796 16.0256 13.572Z" fill="#E3702D"/>
<path fill-rule="evenodd" clip-rule="evenodd" d="M7.05556 13C6.24517 13 5.46798 13.3951 4.89495 14.0984C4.32192 14.8016 4 15.7554 4 16.75V18.25C4 18.6183 4.2163 18.9246 4.5015 18.988L4.5 19H4.61111H14.3889H14.5L14.4985 18.988C14.7837 18.9246 15 18.6183 15 18.25V16.75C15 15.7554 14.6781 14.8016 14.105 14.0984C13.532 13.3951 12.7548 13 11.9444 13H7.05556Z" fill="#E3702D"/>
</svg>
