<svg width="24" height="24" viewBox="0 0 24 24" fill="none" xmlns="http://www.w3.org/2000/svg">
<path fill-rule="evenodd" clip-rule="evenodd" d="M12 5C8.13401 5 5 8.13401 5 12C5 15.866 8.13401 19 12 19C15.866 19 19 15.866 19 12C19 8.13401 15.866 5 12 5ZM3 12C3 7.02944 7.02944 3 12 3C16.9706 3 21 7.02944 21 12C21 16.9706 16.9706 21 12 21C7.02944 21 3 16.9706 3 12Z" fill="white"/>
<path fill-rule="evenodd" clip-rule="evenodd" d="M11.2363 15.8243C11.2363 15.4018 11.5788 15.0593 12.0013 15.0593H12.009C12.4315 15.0593 12.7739 15.4018 12.7739 15.8243C12.7739 16.2468 12.4315 16.5893 12.009 16.5893H12.0013C11.5788 16.5893 11.2363 16.2468 11.2363 15.8243Z" fill="white"/>
<path fill-rule="evenodd" clip-rule="evenodd" d="M12.1985 8.95825C11.8424 8.89716 11.4762 8.96408 11.1647 9.14716C10.8532 9.33023 10.6165 9.61764 10.4966 9.95848C10.3564 10.357 9.91965 10.5665 9.5211 10.4263C9.12255 10.2861 8.91312 9.84932 9.05332 9.45077C9.29312 8.76909 9.76644 8.19427 10.3894 7.82812C11.0125 7.46198 11.7449 7.32813 12.4572 7.4503C13.1694 7.57247 13.8154 7.94276 14.2808 8.49559C14.7461 9.04831 15.0008 9.74783 14.9998 10.4703C14.9995 11.641 14.1315 12.4141 13.5117 12.8273C13.1784 13.0495 12.8506 13.2129 12.6091 13.3202C12.4873 13.3743 12.3847 13.4154 12.3108 13.4436C12.2738 13.4577 12.2438 13.4686 12.2219 13.4764L12.1953 13.4857L12.1869 13.4886L12.1839 13.4896L12.1827 13.49C12.1825 13.49 12.1818 13.4903 11.9399 12.7646L12.1818 13.4903C11.781 13.6239 11.3477 13.4073 11.2141 13.0065C11.0806 12.6059 11.2969 12.173 11.6972 12.0391L11.6962 12.0394C11.6963 12.0394 11.6963 12.0394 11.6972 12.0391L11.7094 12.0348C11.7211 12.0306 11.7404 12.0236 11.7661 12.0138C11.8177 11.9942 11.8944 11.9636 11.9878 11.9221C12.1766 11.8382 12.4225 11.7146 12.663 11.5543C13.1905 11.2026 13.4698 10.8285 13.4698 10.4696L13.4698 10.4685C13.4704 10.1072 13.343 9.75731 13.1103 9.48089C12.8776 9.20448 12.5546 9.01933 12.1985 8.95825Z" fill="white"/>
</svg>
