<svg width="24" height="24" viewBox="0 0 24 24" fill="none" xmlns="http://www.w3.org/2000/svg">
<path fill-rule="evenodd" clip-rule="evenodd" d="M11.5088 4.1532C11.7977 3.94893 12.2023 3.94893 12.4912 4.1532L19.6912 9.24411C19.886 9.38189 20 9.59375 20 9.81818V17.8182C20 18.3968 19.7471 18.9518 19.2971 19.361C18.847 19.7701 18.2365 20 17.6 20H6.4C5.76348 20 5.15303 19.7701 4.70294 19.361C4.25286 18.9518 4 18.3968 4 17.8182V9.81818C4 9.59375 4.11398 9.38189 4.30885 9.24411L11.5088 4.1532ZM5.6 10.1739V17.8182C5.6 18.0111 5.68429 18.1961 5.83431 18.3324C5.98434 18.4688 6.18783 18.5455 6.4 18.5455H17.6C17.8122 18.5455 18.0157 18.4688 18.1657 18.3324C18.3157 18.1961 18.4 18.0111 18.4 17.8182V10.1739L12 5.64863L5.6 10.1739Z" fill="white"/>
<path fill-rule="evenodd" clip-rule="evenodd" d="M9 11.75C9 11.3358 9.33579 11 9.75 11H14.25C14.6642 11 15 11.3358 15 11.75V19.25C15 19.6642 14.6642 20 14.25 20C13.8358 20 13.5 19.6642 13.5 19.25V12.5H10.5V19.25C10.5 19.6642 10.1642 20 9.75 20C9.33579 20 9 19.6642 9 19.25V11.75Z" fill="white"/>
</svg>
