<svg width="24" height="24" viewBox="0 0 24 24" fill="none" xmlns="http://www.w3.org/2000/svg">
<path fill-rule="evenodd" clip-rule="evenodd" d="M12 6C8.68629 6 6 8.68629 6 12C6 15.3137 8.68629 18 12 18C15.3137 18 18 15.3137 18 12C18 8.68629 15.3137 6 12 6ZM4 12C4 7.58172 7.58172 4 12 4C16.4183 4 20 7.58172 20 12C20 16.4183 16.4183 20 12 20C7.58172 20 4 16.4183 4 12Z" fill="white"/>
<path fill-rule="evenodd" clip-rule="evenodd" d="M13 9C13 8.44772 12.5523 8 12 8C11.4477 8 11 8.44772 11 9V9.00687V9.01376V9.02066V9.02758V9.03451V9.04145V9.04841V9.05539V9.06238V9.06938V9.0764V9.08343V9.09047V9.09753V9.1046V9.11168V9.11878V9.12589V9.13302V9.14015V9.1473V9.15446V9.16164V9.16883V9.17603V9.18324V9.19046V9.1977V9.20495V9.21221V9.21948V9.22676V9.23406V9.24136V9.24868V9.25601V9.26335V9.2707V9.27806V9.28543V9.29281V9.30021V9.30761V9.31502V9.32245V9.32988V9.33732V9.34478V9.35224V9.35971V9.36719V9.37469V9.38219V9.3897V9.39722V9.40474V9.41228V9.41983V9.42738V9.43494V9.44251V9.45009V9.45768V9.46528V9.47288V9.48049V9.48811V9.49574V9.50337V9.51101V9.51866V9.52631V9.53398V9.54165V9.54932V9.55701V9.5647V9.57239V9.58009V9.5878V9.59552V9.60324V9.61097V9.6187V9.62644V9.63418V9.64193V9.64969V9.65745V9.66521V9.67298V9.68076V9.68854V9.69632V9.70411V9.7119V9.7197V9.72751V9.73531V9.74312V9.75094V9.75876V9.76658V9.7744V9.78223V9.79006V9.7979V9.80574V9.81358V9.82143V9.82927V9.83712V9.84498V9.85283V9.86069V9.86855V9.87641V9.88428V9.89214V9.90001V9.90788V9.91575V9.92363V9.9315V9.93937V9.94725V9.95513V9.96301V9.97089V9.97877V9.98665V9.99453V10.0024V10.0103V10.0182V10.0261V10.0339V10.0418V10.0497V10.0576V10.0655V10.0733V10.0812V10.0891V10.097V10.1049V10.1127V10.1206V10.1285V10.1363V10.1442V10.1521V10.1599V10.1678V10.1757V10.1835V10.1914V10.1992V10.2071V10.2149V10.2228V10.2306V10.2385V10.2463V10.2541V10.262V10.2698V10.2776V10.2855V10.2933V10.3011V10.3089V10.3167V10.3245V10.3323V10.3401V10.3479V10.3557V10.3634V10.3712V10.379V10.3867V10.3945V10.4023V10.41V10.4177V10.4255V10.4332V10.4409V10.4487V10.4564V10.4641V10.4718V10.4795V10.4872V10.4948V10.5025V10.5102V10.5178V10.5255V10.5331V10.5408V10.5484V10.556V10.5636V10.5713V10.5789V10.5864V10.594V10.6016V10.6092V10.6167V10.6243V10.6318V10.6394V10.6469V10.6544V10.6619V10.6694V10.6769V10.6844V10.6918V10.6993V10.7067V10.7142V10.7216V10.729V10.7364V10.7438V10.7512V10.7586V10.766V10.7733V10.7807V10.788V10.7953V10.8027V10.81V10.8173V10.8245V10.8318V10.8391V10.8463V10.8535V10.8608V10.868V10.8752V10.8823V10.8895V10.8967V10.9038V10.9109V10.9181V10.9252V10.9323V10.9393V10.9464V10.9535V10.9605V10.9675V10.9745V10.9815V10.9885V10.9955V11.0024V11.0094V11.0163V11.0232V11.0301V11.037V11.0439V11.0507V11.0576V11.0644V11.0712V11.078V11.0847V11.0915V11.0982V11.105V11.1117V11.1184V11.1251V11.1317V11.1384V11.145V11.1516V11.1582V11.1648V11.1713V11.1779V11.1844V11.1909V11.1974V11.2039V11.2103V11.2168V11.2232V11.2296V11.236V11.2424V11.2487V11.255V11.2613V11.2676V11.2739V11.2802V11.2864V11.2926V11.2988V11.305V11.3111V11.3173V11.3234V11.3295V11.3356V11.3416V11.3477V11.3537V11.3597V11.3657V11.3716V11.3776V11.3835V11.3894V11.3952V11.4011V11.4069V11.4127V11.4185V11.4243V11.43V11.4358V11.4415V11.4471V11.4528V11.4584V11.464V11.4696V11.4752V11.4807V11.4862V11.4917V11.4972V11.5027V11.5081V11.5135V11.5189V11.5242V11.5296V11.5349V11.5402V11.5454V11.5507V11.5559V11.5611V11.5662V11.5714V11.5765V11.5816V11.5866V11.5917V11.5967V11.6017V11.6067V11.6116V11.6165V11.6214V11.6263V11.6311V11.6359V11.6407V11.6454V11.6502V11.6549V11.6596V11.6642V11.6688V11.6734V11.678V11.6825V11.6871V11.6915V11.696V11.7004V11.7048V11.7092V11.7136V11.7179V11.7222V11.7264V11.7307V11.7349V11.7391V11.7432V11.7473V11.7514V11.7555V11.7595V11.7635V11.7675V11.7715V11.7754V11.7793V11.7831V11.7869V11.7907V11.7945V11.7982V11.8019V11.8056V11.8093V11.8129V11.8165V11.82V11.8235V11.827V11.8305V11.8339V11.8373V11.8407V11.844V11.8473V11.8506V11.8538V11.857V11.8602V11.8633V11.8664V11.8695V11.8726V11.8756V11.8785V11.8815V11.8844V11.8873V11.8901V11.8929V11.8957V11.8984V11.9011V11.9038V11.9065V11.9091V11.9116V11.9142V11.9167V11.9191V11.9216V11.924V11.9263V11.9287V11.931V11.9332V11.9354V11.9376V11.9398V11.9419V11.944V11.946V11.948V11.95V11.9519V11.9538V11.9557V11.9575V11.9593V11.9611V11.9628V11.9645V11.9661V11.9677V11.9693V11.9708V11.9723V11.9737V11.9752V11.9765V11.9779V11.9792V11.9804V11.9817V11.9829V11.984V11.9851V11.9862V11.9872V11.9882V11.9892V11.9901V11.9909V11.9918V11.9926V11.9933V11.994V11.9947V11.9954V11.9959V11.9965V11.997V11.9975V11.9979V11.9983V11.9987V11.999V11.9993V11.9995V11.9997V11.9998V11.9999V12L12 12H11C11 12.5523 11.4477 13 12 13C12.5523 13 13 12.5523 13 12H12L13 12V11.9999V11.9998V11.9997V11.9995V11.9993V11.999V11.9987V11.9983V11.9979V11.9975V11.997V11.9965V11.9959V11.9954V11.9947V11.994V11.9933V11.9926V11.9918V11.9909V11.9901V11.9892V11.9882V11.9872V11.9862V11.9851V11.984V11.9829V11.9817V11.9804V11.9792V11.9779V11.9765V11.9752V11.9737V11.9723V11.9708V11.9693V11.9677V11.9661V11.9645V11.9628V11.9611V11.9593V11.9575V11.9557V11.9538V11.9519V11.95V11.948V11.946V11.944V11.9419V11.9398V11.9376V11.9354V11.9332V11.931V11.9287V11.9263V11.924V11.9216V11.9191V11.9167V11.9142V11.9116V11.9091V11.9065V11.9038V11.9011V11.8984V11.8957V11.8929V11.8901V11.8873V11.8844V11.8815V11.8785V11.8756V11.8726V11.8695V11.8664V11.8633V11.8602V11.857V11.8538V11.8506V11.8473V11.844V11.8407V11.8373V11.8339V11.8305V11.827V11.8235V11.82V11.8165V11.8129V11.8093V11.8056V11.8019V11.7982V11.7945V11.7907V11.7869V11.7831V11.7793V11.7754V11.7715V11.7675V11.7635V11.7595V11.7555V11.7514V11.7473V11.7432V11.7391V11.7349V11.7307L13 11.7264V11.7222V11.7179V11.7136V11.7092V11.7048V11.7004V11.696V11.6915V11.6871V11.6825V11.678V11.6734V11.6688V11.6642V11.6596V11.6549V11.6502V11.6454V11.6407V11.6359V11.6311V11.6263V11.6214V11.6165V11.6116V11.6067V11.6017V11.5967V11.5917V11.5866V11.5816V11.5765V11.5714V11.5662V11.5611V11.5559V11.5507V11.5454V11.5402V11.5349V11.5296V11.5242V11.5189V11.5135V11.5081V11.5027V11.4972V11.4917V11.4862V11.4807V11.4752V11.4696V11.464V11.4584V11.4528V11.4471V11.4415V11.4358V11.43V11.4243V11.4185V11.4127V11.4069V11.4011V11.3952V11.3894V11.3835V11.3776V11.3716V11.3657V11.3597V11.3537V11.3477V11.3416V11.3356V11.3295V11.3234V11.3173V11.3111V11.305V11.2988V11.2926V11.2864V11.2802V11.2739V11.2676V11.2613V11.255V11.2487V11.2424V11.236V11.2296V11.2232V11.2168V11.2103V11.2039V11.1974V11.1909V11.1844V11.1779V11.1713V11.1648V11.1582V11.1516V11.145V11.1384V11.1317V11.1251V11.1184V11.1117V11.105V11.0982V11.0915V11.0847V11.078V11.0712V11.0644V11.0576V11.0507V11.0439V11.037V11.0301V11.0232V11.0163V11.0094V11.0024V10.9955V10.9885V10.9815V10.9745V10.9675V10.9605V10.9535V10.9464V10.9393V10.9323V10.9252V10.9181V10.9109V10.9038V10.8967V10.8895V10.8823V10.8752V10.868V10.8608V10.8535V10.8463V10.8391V10.8318V10.8245V10.8173V10.81V10.8027V10.7953V10.788V10.7807V10.7733V10.766V10.7586V10.7512V10.7438V10.7364V10.729V10.7216V10.7142V10.7067V10.6993V10.6918V10.6844V10.6769V10.6694V10.6619V10.6544V10.6469V10.6394V10.6318V10.6243V10.6167V10.6092V10.6016V10.594V10.5864V10.5789V10.5713V10.5636V10.556V10.5484V10.5408V10.5331V10.5255V10.5178V10.5102V10.5025V10.4948V10.4872V10.4795V10.4718V10.4641V10.4564V10.4487V10.4409V10.4332V10.4255V10.4177V10.41V10.4023V10.3945V10.3867V10.379V10.3712V10.3634V10.3557V10.3479V10.3401V10.3323V10.3245V10.3167V10.3089V10.3011V10.2933V10.2855V10.2776V10.2698V10.262V10.2541V10.2463V10.2385V10.2306V10.2228V10.2149V10.2071V10.1992V10.1914V10.1835V10.1757V10.1678V10.1599V10.1521V10.1442V10.1363V10.1285V10.1206V10.1127V10.1049V10.097V10.0891V10.0812V10.0733V10.0655V10.0576V10.0497V10.0418V10.0339V10.0261V10.0182V10.0103V10.0024V9.99453V9.98665V9.97877V9.97089V9.96301V9.95513V9.94725V9.93937V9.9315V9.92363V9.91575V9.90788V9.90001V9.89214V9.88428V9.87641V9.86855V9.86069V9.85283V9.84498V9.83712V9.82927V9.82143V9.81358V9.80574V9.7979V9.79007V9.78223V9.7744V9.76658V9.75876V9.75094V9.74312V9.73531V9.72751V9.7197V9.7119V9.70411V9.69632V9.68854V9.68076V9.67298V9.66521V9.65745V9.64969V9.64193V9.63418V9.62644V9.6187V9.61097V9.60324V9.59552V9.5878V9.58009V9.57239V9.5647V9.55701V9.54932V9.54165V9.53398V9.52631V9.51866V9.51101V9.50337V9.49574V9.48811V9.48049V9.47288V9.46528V9.45768V9.45009V9.44251V9.43494V9.42738V9.41983V9.41228V9.40474V9.39722V9.3897V9.38219V9.37469V9.36719V9.35971V9.35224V9.34478V9.33732V9.32988V9.32245V9.31502V9.30761V9.30021V9.29281V9.28543V9.27806V9.2707V9.26335V9.25601V9.24868V9.24136V9.23406V9.22676V9.21948V9.21221V9.20495V9.1977V9.19046V9.18324V9.17603V9.16883V9.16164V9.15446V9.1473V9.14015V9.13302V9.12589V9.11878V9.11168V9.1046V9.09753V9.09047V9.08343V9.0764V9.06938V9.06238V9.05539V9.04841V9.04145V9.03451V9.02758V9.02066V9.01376V9.00687V9ZM11.995 14C11.4455 14 11 14.4477 11 15C11 15.5523 11.4455 16 11.995 16H12.005C12.5545 16 13 15.5523 13 15C13 14.4477 12.5545 14 12.005 14H11.995Z" fill="white"/>
</svg>
