<svg width="24" height="24" viewBox="0 0 24 24" fill="none" xmlns="http://www.w3.org/2000/svg">
<path fill-rule="evenodd" clip-rule="evenodd" d="M12.004 19.3749C11.8131 19.3749 11.63 19.2989 11.495 19.1636L7.42401 15.082C6.51831 14.1741 5.90122 13.0177 5.65107 11.7584C5.40091 10.4995 5.52893 9.19412 6.01879 8.00774C6.50857 6.82137 7.33832 5.80755 8.40303 5.09411C9.46766 4.38067 10.7195 4 12 4C13.2806 4 14.5324 4.38067 15.597 5.09411C16.6617 5.80755 17.4915 6.82137 17.9813 8.00774C18.4711 9.19412 18.5991 10.4995 18.349 11.7584C18.0989 13.0177 17.4821 14.1738 16.5765 15.0812L12.5127 19.1633C12.457 19.2193 12.3929 19.2651 12.3235 19.2996C12.2252 19.3485 12.1159 19.3746 12.004 19.3749ZM12 13C13.6569 13 15 11.6569 15 10C15 8.34315 13.6569 7 12 7C10.3431 7 9 8.34315 9 10C9 11.6569 10.3431 13 12 13Z" fill="white"/>
</svg>
