<svg width="24" height="24" viewBox="0 0 24 24" fill="none" xmlns="http://www.w3.org/2000/svg">
<circle cx="12" cy="10" r="2" fill="white"/>
<path fill-rule="evenodd" clip-rule="evenodd" d="M15.597 5.09411C14.5324 4.38067 13.2806 4 12 4C10.7195 4 9.46766 4.38067 8.40303 5.09411C7.33832 5.80755 6.50857 6.82137 6.01879 8.00774C5.52893 9.19412 5.40091 10.4995 5.65107 11.7584C5.90122 13.0177 6.51831 14.1741 7.42401 15.082L11.495 19.1636C11.63 19.2989 11.8131 19.3749 12.004 19.3749C12.1159 19.3746 12.2252 19.3485 12.3235 19.2996C12.3929 19.2651 12.457 19.2193 12.5127 19.1633L16.5765 15.0812C17.4821 14.1738 18.0989 13.0177 18.349 11.7584C18.5991 10.4995 18.4711 9.19412 17.9813 8.00774C17.4915 6.82137 16.6617 5.80755 15.597 5.09411ZM12.0028 16.8407L15.1608 13.6685C15.7871 13.0409 16.2141 12.241 16.3873 11.3689C16.5605 10.4971 16.4719 9.59268 16.1326 8.77105C15.7936 7.94983 15.2195 7.24865 14.4837 6.75559C13.7483 6.26277 12.8839 6 12 6C11.1161 6 10.2518 6.26273 9.51642 6.75555C8.78059 7.24861 8.20648 7.94971 7.86745 8.77093C7.5282 9.59256 7.43949 10.4969 7.61272 11.3686C7.78596 12.2408 8.21327 13.0413 8.83988 13.6694L12.0028 16.8407Z" fill="white"/>
</svg>
