<svg width="24" height="24" viewBox="0 0 24 24" fill="none" xmlns="http://www.w3.org/2000/svg">
<path fill-rule="evenodd" clip-rule="evenodd" d="M10.622 6.64528C11.0072 6.21729 11.5056 6 12 6C12.4944 6 12.9928 6.21729 13.378 6.64528C13.7663 7.07674 14 7.68248 14 8.33333V10H10V8.33333C10 7.68248 10.2337 7.07674 10.622 6.64528ZM8 10V8.33333C8 7.21608 8.39848 6.12613 9.13539 5.30735C9.87542 4.48509 10.9031 4 12 4C13.0969 4 14.1246 4.48509 14.8646 5.30735C15.6015 6.12613 16 7.21608 16 8.33333V10H17.4444C18.7915 10 20 11.0368 20 12.4545V17.5455C20 18.9632 18.7915 20 17.4444 20H6.55556C5.20846 20 4 18.9632 4 17.5455V12.4545C4 11.0368 5.20846 10 6.55556 10H8ZM15 12H9H6.55556C6.18443 12 6 12.2657 6 12.4545V17.5455C6 17.7343 6.18443 18 6.55556 18H17.4444C17.8156 18 18 17.7343 18 17.5455V12.4545C18 12.2657 17.8156 12 17.4444 12H15Z" fill="white"/>
</svg>
