<svg width="24" height="24" viewBox="0 0 24 24" fill="none" xmlns="http://www.w3.org/2000/svg">
<path fill-rule="evenodd" clip-rule="evenodd" d="M5.6 6.35278C5.28684 6.35278 5 6.62164 5 6.97778V16.7278C5 17.0839 5.28684 17.3528 5.6 17.3528H18.4C18.7132 17.3528 19 17.0839 19 16.7278V6.97778C19 6.62164 18.7132 6.35278 18.4 6.35278H5.6ZM3 6.97778C3 5.54642 4.15316 4.35278 5.6 4.35278H18.4C19.8468 4.35278 21 5.54642 21 6.97778V16.7278C21 18.1591 19.8468 19.3528 18.4 19.3528H5.6C4.15316 19.3528 3 18.1591 3 16.7278V6.97778Z" fill="white"/>
<path fill-rule="evenodd" clip-rule="evenodd" d="M3.10579 6.90554C3.35278 6.41157 3.95345 6.21134 4.44743 6.45833L12.0002 10.2347L19.553 6.45833C20.047 6.21134 20.6477 6.41157 20.8946 6.90554C21.1416 7.39952 20.9414 8.0002 20.4474 8.24719L12.4474 12.2472C12.1659 12.3879 11.8345 12.3879 11.553 12.2472L3.55301 8.24719C3.05903 8.0002 2.8588 7.39952 3.10579 6.90554Z" fill="white"/>
</svg>
