<svg width="24" height="24" viewBox="0 0 24 24" fill="none" xmlns="http://www.w3.org/2000/svg">
<path fill-rule="evenodd" clip-rule="evenodd" d="M6.4 5.6C6.18783 5.6 5.98434 5.68428 5.83431 5.83431C5.68429 5.98434 5.6 6.18782 5.6 6.4V17.2686L7.43431 15.4343C7.58434 15.2843 7.78783 15.2 8 15.2H17.6C17.8122 15.2 18.0157 15.1157 18.1657 14.9657C18.3157 14.8156 18.4 14.6122 18.4 14.4V6.4C18.4 6.18782 18.3157 5.98434 18.1657 5.83431C18.0157 5.68428 17.8122 5.6 17.6 5.6H6.4ZM4.70294 4.70294C5.15303 4.25286 5.76348 4 6.4 4H17.6C18.2365 4 18.847 4.25286 19.2971 4.70294C19.7471 5.15303 20 5.76348 20 6.4V14.4C20 15.0365 19.7471 15.647 19.2971 16.097C18.847 16.5471 18.2365 16.8 17.6 16.8H8.33137L5.36569 19.7657C5.13689 19.9945 4.79279 20.0629 4.49385 19.9391C4.19491 19.8153 4 19.5235 4 19.2V6.4C4 5.76348 4.25286 5.15303 4.70294 4.70294Z" fill="white"/>
<path d="M10 11C10 11.5523 9.55228 12 9 12C8.44772 12 8 11.5523 8 11C8 10.4477 8.44772 10 9 10C9.55228 10 10 10.4477 10 11Z" fill="white"/>
<path d="M13 11C13 11.5523 12.5523 12 12 12C11.4477 12 11 11.5523 11 11C11 10.4477 11.4477 10 12 10C12.5523 10 13 10.4477 13 11Z" fill="white"/>
<path d="M16 11C16 11.5523 15.5523 12 15 12C14.4477 12 14 11.5523 14 11C14 10.4477 14.4477 10 15 10C15.5523 10 16 10.4477 16 11Z" fill="white"/>
</svg>
