<svg width="24" height="24" viewBox="0 0 24 24" fill="none" xmlns="http://www.w3.org/2000/svg">
<path fill-rule="evenodd" clip-rule="evenodd" d="M8.35525 6.35091C6.5949 7.60951 5.5 9.56508 5.5 11.7099C5.5 15.3595 8.70967 18.5 12.9 18.5H12.9021C14.0189 18.5016 15.1191 18.2694 16.1215 17.8235C16.4241 17.6889 16.7151 17.536 16.993 17.3663C12.116 17.1885 8.0495 13.4252 8.0486 8.59741M17.3542 15.8729C13.045 15.8729 9.5486 12.6169 9.5486 8.59582C9.54603 7.38705 9.8681 6.19713 10.4851 5.13577C10.5638 5.00108 10.5977 4.84741 10.5824 4.69452C10.5672 4.54163 10.5036 4.39649 10.3998 4.27775C10.2904 4.15123 10.1401 4.06153 9.97149 4.0222C9.80292 3.98287 9.62528 3.99605 9.46541 4.05975C6.25485 5.31177 4 8.26581 4 11.7099C4 16.2859 7.98279 20 12.9 20C14.225 20.0019 15.5339 19.7266 16.7311 19.1941C17.9282 18.6616 18.9836 17.8853 19.8202 16.9219C19.9305 16.7976 19.9935 16.6424 19.9995 16.4807C20.0055 16.3191 19.9541 16.1602 19.8533 16.0289C19.7581 15.9028 19.6254 15.8056 19.4719 15.7495C19.3183 15.6933 19.1505 15.6806 18.9893 15.7129C18.4624 15.8189 17.9174 15.8723 17.3542 15.8729Z" fill="white"/>
</svg>
