<svg width="24" height="24" viewBox="0 0 24 24" fill="none" xmlns="http://www.w3.org/2000/svg">
<path d="M7.6353 8.62139V17.6263C7.6353 18.3427 7.07255 18.924 6.37744 18.924H7.6353C9.4735 18.924 10.9646 17.3866 10.9646 15.4901V5.1875C9.1264 5.1875 7.6353 6.72488 7.6353 8.62139Z" fill="white"/>
<path d="M17.4001 15.5663V6.56133C17.4001 5.84493 17.9629 5.26367 18.658 5.26367H17.4001C15.5619 5.26367 14.0708 6.80105 14.0708 8.69756V19.0002C15.909 19.0002 17.4001 17.4628 17.4001 15.5663Z" fill="white"/>
<path d="M5.37907 18.9241C5.93063 18.9241 6.37777 18.4629 6.37777 17.8939C6.37777 17.325 5.93063 16.8638 5.37907 16.8638C4.8275 16.8638 4.38037 17.325 4.38037 17.8939C4.38037 18.4629 4.8275 18.9241 5.37907 18.9241Z" fill="white"/>
<path d="M19.4347 7.32474C19.9863 7.32474 20.4334 6.86352 20.4334 6.29457C20.4334 5.72563 19.9863 5.2644 19.4347 5.2644C18.8832 5.2644 18.436 5.72563 18.436 6.29457C18.436 6.86352 18.8832 7.32474 19.4347 7.32474Z" fill="white"/>
<path d="M12.8649 14.1258C12.7473 14.1258 12.6409 14.0444 12.614 13.925L10.7203 5.53092C10.6888 5.39208 10.7758 5.25417 10.9147 5.2227C11.0535 5.19216 11.1914 5.27824 11.2229 5.41708L13.1166 13.8111C13.1481 13.95 13.0611 14.0879 12.9222 14.1193C12.9028 14.124 12.8843 14.1258 12.8658 14.1258H12.8649Z" fill="white"/>
</svg>
