<svg width="24" height="24" viewBox="0 0 24 24" fill="none" xmlns="http://www.w3.org/2000/svg">
<path d="M17 12.8889V13.5V14.5L15.1036 12.6036C15.0372 12.5372 15 12.4473 15 12.3536C15 12.1583 15.1583 12 15.3536 12H16.1111C16.602 12 17 12.398 17 12.8889Z" fill="white"/>
<path fill-rule="evenodd" clip-rule="evenodd" d="M19 12C19.5523 12 20 12.398 20 12.8889V15.1111C20 15.602 19.5523 16 19 16C18.4477 16 18 15.602 18 15.1111V12.8889C18 12.398 18.4477 12 19 12Z" fill="white"/>
<path fill-rule="evenodd" clip-rule="evenodd" d="M16.3723 5.11862C16.6807 5.33487 16.7641 5.77312 16.5585 6.09748C16.2881 6.52393 16.2701 7.07439 16.5119 7.51938L16.6536 7.7802C17.1477 8.68946 17.1108 9.81424 16.5585 10.6856C16.3528 11.01 15.9361 11.0976 15.6277 10.8814C15.3193 10.6651 15.2359 10.2269 15.4415 9.90252C15.7119 9.47607 15.7299 8.92561 15.4881 8.48062L15.3464 8.2198C14.8523 7.31053 14.8892 6.18576 15.4415 5.3144C15.6472 4.99003 16.0639 4.90238 16.3723 5.11862Z" fill="white"/>
<path fill-rule="evenodd" clip-rule="evenodd" d="M19.3723 5.11862C19.6807 5.33487 19.7641 5.77312 19.5585 6.09748C19.2881 6.52393 19.2701 7.07439 19.5119 7.51938L19.6536 7.7802C20.1477 8.68946 20.1108 9.81424 19.5585 10.6856C19.3528 11.01 18.9361 11.0976 18.6277 10.8814C18.3193 10.6651 18.2359 10.2269 18.4415 9.90252C18.7119 9.47607 18.7299 8.92561 18.4881 8.48062L18.3464 8.2198C17.8523 7.31053 17.8892 6.18576 18.4415 5.3144C18.6472 4.99003 19.0639 4.90238 19.3723 5.11862Z" fill="white"/>
<path d="M9.08579 12H5C4.44772 12 4 12.4477 4 13V15C4 15.5523 4.44772 16 5 16H11.0858C11.9767 16 12.4229 14.9229 11.7929 14.2929L9.79289 12.2929C9.60536 12.1054 9.351 12 9.08579 12Z" fill="white"/>
<path fill-rule="evenodd" clip-rule="evenodd" d="M4.29289 4.29289C4.68342 3.90237 5.31658 3.90237 5.70711 4.29289L19.7071 18.2929C20.0976 18.6834 20.0976 19.3166 19.7071 19.7071C19.3166 20.0976 18.6834 20.0976 18.2929 19.7071L4.29289 5.70711C3.90237 5.31658 3.90237 4.68342 4.29289 4.29289Z" fill="white"/>
</svg>
