<svg width="24" height="24" viewBox="0 0 24 24" fill="none" xmlns="http://www.w3.org/2000/svg">
<path fill-rule="evenodd" clip-rule="evenodd" d="M7.98325 4.70881C9.04364 3.61812 10.4879 3 12.0001 3C13.5122 3 14.9565 3.61812 16.0169 4.70881C17.0764 5.79854 17.6667 7.27069 17.6667 8.8C17.6667 11.4573 18.2192 13.093 18.7169 14.0315C18.9669 14.503 19.2082 14.8082 19.371 14.985C19.4527 15.0737 19.5154 15.1309 19.5506 15.1611C19.5664 15.1746 19.5767 15.1827 19.5807 15.1858C19.9314 15.4359 20.0832 15.8833 19.9553 16.296C19.8255 16.7146 19.4383 17 19.0001 17H5.00007C4.56182 17 4.17463 16.7146 4.0449 16.296C3.91698 15.8833 4.06873 15.4359 4.41943 15.1858C4.42342 15.1828 4.43372 15.1746 4.44954 15.1611C4.48473 15.1309 4.54742 15.0737 4.62911 14.985C4.79198 14.8082 5.03324 14.503 5.28328 14.0315C5.78099 13.093 6.33341 11.4573 6.33341 8.8C6.33341 7.27069 6.92378 5.79854 7.98325 4.70881ZM7.03341 15H16.9667C16.9611 14.9896 16.9555 14.9791 16.9499 14.9685C16.281 13.707 15.6667 11.7427 15.6667 8.8C15.6667 7.78323 15.2738 6.81358 14.5829 6.10297C13.893 5.39331 12.9633 5 12.0001 5C11.0368 5 10.1072 5.39331 9.41724 6.10297C8.72636 6.81358 8.33341 7.78323 8.33341 8.8C8.33341 11.7427 7.71916 13.707 7.0502 14.9685C7.04461 14.9791 7.03901 14.9896 7.03341 15Z" fill="white"/>
<path fill-rule="evenodd" clip-rule="evenodd" d="M9.68318 16.0515C10.207 15.8765 10.7735 16.1593 10.9485 16.6831C11.1165 17.1859 11.339 17.543 11.5532 17.7571C11.7616 17.9656 11.9177 18 12.0001 18C12.0825 18 12.2386 17.9656 12.447 17.7571C12.6612 17.543 12.8836 17.1859 13.0516 16.6831C13.2266 16.1593 13.7932 15.8765 14.317 16.0515C14.8408 16.2266 15.1236 16.7931 14.9485 17.3169C14.71 18.0307 14.349 18.6835 13.8612 19.1714C13.3676 19.6649 12.7278 20 12.0001 20C11.2724 20 10.6325 19.6649 10.1389 19.1714C9.65111 18.6835 9.29012 18.0307 9.05161 17.3169C8.8766 16.7931 9.15936 16.2266 9.68318 16.0515Z" fill="white"/>
</svg>
