<svg width="24" height="24" viewBox="0 0 24 24" fill="none" xmlns="http://www.w3.org/2000/svg">
<path fill-rule="evenodd" clip-rule="evenodd" d="M15.7071 7.29289C15.3166 6.90237 14.6834 6.90237 14.2929 7.29289C13.9024 7.68342 13.9024 8.31658 14.2929 8.70711L16.5858 11H10C9.44772 11 9 11.4477 9 12C9 12.5523 9.44772 13 10 13H16.5858L14.2929 15.2929C13.9024 15.6834 13.9024 16.3166 14.2929 16.7071C14.6834 17.0976 15.3166 17.0976 15.7071 16.7071L19.7065 12.7077L19.7071 12.7071C19.7093 12.7049 19.7115 12.7027 19.7136 12.7005C19.9038 12.5069 19.9992 12.2551 20 12.003M19.7136 11.2995C19.8063 11.3938 19.8764 11.502 19.9241 11.6172C19.8746 11.4979 19.8027 11.3902 19.7136 11.2995ZM15.7071 7.29289L19.7065 11.2923L15.7071 7.29289Z" fill="white"/>
<path fill-rule="evenodd" clip-rule="evenodd" d="M6.25 5.6C6.05109 5.6 5.86032 5.68429 5.71967 5.83431C5.57902 5.98434 5.5 6.18783 5.5 6.4V17.6C5.5 17.8122 5.57902 18.0157 5.71967 18.1657C5.86032 18.3157 6.05109 18.4 6.25 18.4H9.25C9.66421 18.4 10 18.7582 10 19.2C10 19.6418 9.66421 20 9.25 20H6.25C5.65326 20 5.08097 19.7471 4.65901 19.2971C4.23705 18.847 4 18.2365 4 17.6V6.4C4 5.76348 4.23705 5.15303 4.65901 4.70294C5.08097 4.25286 5.65326 4 6.25 4H9.25C9.66421 4 10 4.35817 10 4.8C10 5.24183 9.66421 5.6 9.25 5.6H6.25Z" fill="white"/>
</svg>
