<svg width="24" height="24" viewBox="0 0 24 24" fill="none" xmlns="http://www.w3.org/2000/svg">
<path fill-rule="evenodd" clip-rule="evenodd" d="M5.45455 12C5.45455 8.38505 8.38505 5.45455 12 5.45455C15.615 5.45455 18.5455 8.38505 18.5455 12C18.5455 15.615 15.615 18.5455 12 18.5455C8.38505 18.5455 5.45455 15.615 5.45455 12ZM12 4C7.58172 4 4 7.58172 4 12C4 16.4183 7.58172 20 12 20C16.4183 20 20 16.4183 20 12C20 7.58172 16.4183 4 12 4ZM15.2727 10.8547C15.2727 9.78891 14.8913 9.04553 14.2116 8.64594C13.6504 8.316 13.0178 8.31756 12.7357 8.31825L12.7012 8.31831H10.3636C9.91177 8.31831 9.54545 8.68462 9.54545 9.13649V14.8638C9.54545 15.3156 9.91177 15.6819 10.3636 15.6819C10.8155 15.6819 11.1818 15.3156 11.1818 14.8638V13.391H12.7012L12.7357 13.3911C13.0178 13.3918 13.6504 13.3933 14.2116 13.0634C14.8913 12.6638 15.2727 11.9204 15.2727 10.8547ZM12.7012 11.7547H11.1818V9.95467H12.7012C13.0235 9.95467 13.2371 9.97122 13.3823 10.0566C13.4328 10.0863 13.4832 10.1302 13.5284 10.2222C13.5783 10.3236 13.6364 10.5149 13.6364 10.8547C13.6364 11.1945 13.5783 11.3857 13.5284 11.4871C13.4832 11.5792 13.4328 11.623 13.3823 11.6528C13.2371 11.7381 13.0235 11.7547 12.7012 11.7547Z" fill="white"/>
</svg>
