<svg width="24" height="24" viewBox="0 0 24 24" fill="none" xmlns="http://www.w3.org/2000/svg">
<path d="M13.7197 5.34258C14.2707 5.11641 14.8614 5 15.4579 5C16.0544 5 16.645 5.11641 17.1961 5.34258C17.747 5.56871 18.2476 5.90013 18.6693 6.31791C19.091 6.73556 19.4259 7.23164 19.6541 7.77738C19.8825 8.32322 20 8.90828 20 9.49913C20 10.09 19.8825 10.675 19.6541 11.2209C19.4258 11.7667 19.0912 12.2626 18.6694 12.6802L12.4938 18.7973C12.221 19.0676 11.7787 19.0676 11.5058 18.7973L5.33025 12.6802C4.47851 11.8365 4 10.6923 4 9.49913C4 8.30598 4.47851 7.16171 5.33025 6.31803C6.182 5.47434 7.33722 5.00037 8.54177 5.00037C9.74632 5.00037 10.9015 5.47434 11.7533 6.31803L11.9998 6.56222L12.2462 6.31814C12.6679 5.90031 13.1686 5.56873 13.7197 5.34258Z" fill="#E3702D"/>
</svg>
