<svg width="40" height="40" viewBox="0 0 40 40" fill="none" xmlns="http://www.w3.org/2000/svg">
<g filter="url(#filter0_b_476_1276)">
<path d="M0 20C0 8.95431 8.95431 0 20 0C31.0457 0 40 8.95431 40 20C40 31.0457 31.0457 40 20 40C8.95431 40 0 31.0457 0 20Z" fill="black" fill-opacity="0.31"/>
<path d="M21.7197 13.3426C22.2707 13.1164 22.8614 13 23.4579 13C24.0544 13 24.645 13.1164 25.1961 13.3426C25.747 13.5687 26.2476 13.9001 26.6693 14.3179C27.091 14.7356 27.4259 15.2316 27.6541 15.7774C27.8825 16.3232 28 16.9083 28 17.4991C28 18.09 27.8825 18.675 27.6541 19.2209C27.4258 19.7667 27.0912 20.2626 26.6694 20.6802L20.4938 26.7973C20.221 27.0676 19.7787 27.0676 19.5058 26.7973L13.3303 20.6802C12.4785 19.8365 12 18.6923 12 17.4991C12 16.306 12.4785 15.1617 13.3303 14.318C14.182 13.4743 15.3372 13.0004 16.5418 13.0004C17.7463 13.0004 18.9015 13.4743 19.7533 14.318L19.9998 14.5622L20.2462 14.3181C20.6679 13.9003 21.1686 13.5687 21.7197 13.3426Z" fill="#E3702D"/>
</g>
<defs>
<filter id="filter0_b_476_1276" x="-2" y="-2" width="44" height="44" filterUnits="userSpaceOnUse" color-interpolation-filters="sRGB">
<feFlood flood-opacity="0" result="BackgroundImageFix"/>
<feGaussianBlur in="BackgroundImageFix" stdDeviation="1"/>
<feComposite in2="SourceAlpha" operator="in" result="effect1_backgroundBlur_476_1276"/>
<feBlend mode="normal" in="SourceGraphic" in2="effect1_backgroundBlur_476_1276" result="shape"/>
</filter>
</defs>
</svg>
