<svg width="40" height="40" viewBox="0 0 40 40" fill="none" xmlns="http://www.w3.org/2000/svg">
<path d="M0 20C0 8.95431 8.95431 0 20 0C31.0457 0 40 8.95431 40 20C40 31.0457 31.0457 40 20 40C8.95431 40 0 31.0457 0 20Z" fill="black" fill-opacity="0.31"/>
<path d="M21.5047 14.2936C21.9869 14.0998 22.5037 14 23.0256 14C23.5476 14 24.0644 14.0998 24.5466 14.2936C25.0286 14.4875 25.4667 14.7715 25.8356 15.1296C26.2047 15.4876 26.4976 15.9128 26.6974 16.3806C26.8972 16.8485 27 17.35 27 17.8564C27 18.3628 26.8972 18.8643 26.6974 19.3322C26.4976 19.8 26.2048 20.2251 25.8357 20.5831L20.4321 25.8263C20.1934 26.0579 19.8063 26.0579 19.5676 25.8263L14.164 20.5831C13.4187 19.8599 13 18.8791 13 17.8564C13 16.8337 13.4187 15.8529 14.164 15.1297C14.9093 14.4066 15.9201 14.0003 16.974 14.0003C18.028 14.0003 19.0388 14.4066 19.7841 15.1297L19.9998 15.339L20.2154 15.1298C20.5844 14.7717 21.0226 14.4875 21.5047 14.2936Z" stroke="white" stroke-width="2" stroke-linecap="round" stroke-linejoin="round"/>
</svg>
