<svg width="24" height="24" viewBox="0 0 24 24" fill="none" xmlns="http://www.w3.org/2000/svg">
<path d="M13.5047 6.29364C13.9869 6.09978 14.5037 6 15.0256 6C15.5476 6 16.0644 6.09978 16.5466 6.29364C17.0286 6.48747 17.4667 6.77154 17.8356 7.12964C18.2047 7.48762 18.4976 7.91283 18.6974 8.38061C18.8972 8.84848 19 9.34995 19 9.85639C19 10.3628 18.8972 10.8643 18.6974 11.3322C18.4976 11.8 18.2048 12.2251 17.8357 12.5831L12.4321 17.8263C12.1934 18.0579 11.8063 18.0579 11.5676 17.8263L6.16397 12.5831C5.41869 11.8599 5 10.8791 5 9.85639C5 8.8337 5.41869 7.85289 6.16397 7.12974C6.90925 6.40658 7.92006 6.00032 8.97405 6.00032C10.028 6.00032 11.0388 6.40658 11.7841 7.12974L11.9998 7.33905L12.2154 7.12983C12.5844 6.77169 13.0226 6.48748 13.5047 6.29364Z" stroke="white" stroke-width="2" stroke-linecap="round" stroke-linejoin="round"/>
</svg>
