<svg width="24" height="24" viewBox="0 0 24 24" fill="none" xmlns="http://www.w3.org/2000/svg">
<path fill-rule="evenodd" clip-rule="evenodd" d="M5.6 11.2C5.6 8.1072 8.1072 5.6 11.2 5.6C14.2928 5.6 16.8 8.1072 16.8 11.2C16.8 12.7091 16.203 14.0788 15.2323 15.0859C15.2054 15.1067 15.1794 15.1295 15.1547 15.1542C15.1299 15.179 15.1071 15.205 15.0863 15.232C14.0792 16.2029 12.7093 16.8 11.2 16.8C8.1072 16.8 5.6 14.2928 5.6 11.2ZM15.6944 16.8253C14.4626 17.8107 12.9001 18.4 11.2 18.4C7.22355 18.4 4 15.1764 4 11.2C4 7.22355 7.22355 4 11.2 4C15.1764 4 18.4 7.22355 18.4 11.2C18.4 12.8999 17.8109 14.4622 16.8257 15.6939L19.766 18.6342C20.0784 18.9466 20.0784 19.4532 19.766 19.7656C19.4536 20.078 18.9471 20.078 18.6347 19.7656L15.6944 16.8253Z" fill="white"/>
</svg>
