<svg width="24" height="24" viewBox="0 0 24 24" fill="none" xmlns="http://www.w3.org/2000/svg">
<path fill-rule="evenodd" clip-rule="evenodd" d="M11.6613 5.05911C11.8802 4.9803 12.1198 4.9803 12.3387 5.05911L17.3387 6.85911C17.7355 7.00195 18 7.37831 18 7.8V12C18 14.2636 16.4473 16.0203 15.1432 17.1157C14.4669 17.6838 13.7956 18.1263 13.2957 18.4262C13.0447 18.5769 12.8342 18.6932 12.6841 18.7729C12.609 18.8128 12.5489 18.8436 12.5062 18.8652C12.4849 18.8759 12.4679 18.8844 12.4555 18.8904L12.4405 18.8978L12.4357 18.9001L12.434 18.9009L12.4333 18.9012C12.433 18.9014 12.4327 18.9015 12 18C11.5673 18.9015 11.567 18.9014 11.5667 18.9012L11.566 18.9009L11.5643 18.9001L11.5595 18.8978L11.5445 18.8904C11.5321 18.8844 11.5151 18.8759 11.4938 18.8652C11.4511 18.8436 11.391 18.8128 11.3159 18.7729C11.1658 18.6932 10.9553 18.5769 10.7043 18.4262C10.2044 18.1263 9.53314 17.6838 8.85681 17.1157C7.55272 16.0203 6 14.2636 6 12V7.8C6 7.37831 6.26452 7.00195 6.66128 6.85911L11.6613 5.05911ZM12 18L11.5673 18.9015C11.8408 19.0328 12.1592 19.0328 12.4327 18.9015L12 18ZM12 16.8669C12.0803 16.8214 12.1698 16.7694 12.2668 16.7113C12.7044 16.4487 13.2831 16.0662 13.8568 15.5843C15.0527 14.5797 16 13.3364 16 12V8.50283L12 7.06283L8 8.50283V12C8 13.3364 8.94728 14.5797 10.1432 15.5843C10.7169 16.0662 11.2956 16.4487 11.7332 16.7113C11.8302 16.7694 11.9197 16.8214 12 16.8669Z" fill="white"/>
</svg>
