<svg width="24" height="24" viewBox="0 0 24 24" fill="none" xmlns="http://www.w3.org/2000/svg">
<path fill-rule="evenodd" clip-rule="evenodd" d="M12 5.64706C10.3026 5.64706 8.67475 6.34117 7.47452 7.57671C6.27428 8.81224 5.6 10.488 5.6 12.2353V17.1765C5.6 17.6313 5.24183 18 4.8 18C4.35817 18 4 17.6313 4 17.1765V12.2353C4 10.0512 4.84285 7.95648 6.34315 6.41206C7.84344 4.86764 9.87827 4 12 4C14.1217 4 16.1566 4.86764 17.6569 6.41206C19.1571 7.95648 20 10.0512 20 12.2353V17.1765C20 17.6313 19.6418 18 19.2 18C18.7582 18 18.4 17.6313 18.4 17.1765V12.2353C18.4 10.488 17.7257 8.81224 16.5255 7.57671C15.3253 6.34117 13.6974 5.64706 12 5.64706Z" fill="white"/>
<path fill-rule="evenodd" clip-rule="evenodd" d="M4 13.7778C4 13.3482 4.35817 13 4.8 13H7.2C7.83652 13 8.44697 13.2458 8.89706 13.6834C9.34714 14.121 9.6 14.7145 9.6 15.3333V17.6667C9.6 18.2855 9.34714 18.879 8.89706 19.3166C8.44697 19.7542 7.83652 20 7.2 20H6.4C5.76348 20 5.15303 19.7542 4.70294 19.3166C4.25286 18.879 4 18.2855 4 17.6667V13.7778ZM5.6 14.5556V17.6667C5.6 17.8729 5.68429 18.0708 5.83431 18.2166C5.98434 18.3625 6.18783 18.4444 6.4 18.4444H7.2C7.41217 18.4444 7.61566 18.3625 7.76569 18.2166C7.91571 18.0708 8 17.8729 8 17.6667V15.3333C8 15.1271 7.91571 14.9292 7.76569 14.7834C7.61566 14.6375 7.41217 14.5556 7.2 14.5556H5.6ZM16.8 14.5556C16.5878 14.5556 16.3843 14.6375 16.2343 14.7834C16.0843 14.9292 16 15.1271 16 15.3333V17.6667C16 17.8729 16.0843 18.0708 16.2343 18.2166C16.3843 18.3625 16.5878 18.4444 16.8 18.4444H17.6C17.8122 18.4444 18.0157 18.3625 18.1657 18.2166C18.3157 18.0708 18.4 17.8729 18.4 17.6667V14.5556H16.8ZM15.1029 13.6834C15.553 13.2458 16.1635 13 16.8 13H19.2C19.6418 13 20 13.3482 20 13.7778V17.6667C20 18.2855 19.7471 18.879 19.2971 19.3166C18.847 19.7542 18.2365 20 17.6 20H16.8C16.1635 20 15.553 19.7542 15.1029 19.3166C14.6529 18.879 14.4 18.2855 14.4 17.6667V15.3333C14.4 14.7145 14.6529 14.121 15.1029 13.6834Z" fill="white"/>
</svg>
