<svg width="24" height="24" viewBox="0 0 24 24" fill="none" xmlns="http://www.w3.org/2000/svg">
<path fill-rule="evenodd" clip-rule="evenodd" d="M12 12C11.4477 12 11 12.4477 11 13C11 13.5523 11.4477 14 12 14C12.5523 14 13 13.5523 13 13C13 12.4477 12.5523 12 12 12ZM9 13C9 11.3431 10.3431 10 12 10C13.6569 10 15 11.3431 15 13C15 14.6569 13.6569 16 12 16C10.3431 16 9 14.6569 9 13Z" fill="white"/>
<path fill-rule="evenodd" clip-rule="evenodd" d="M12 6C11.8794 6 11.7638 6.04789 11.6786 6.13313C11.5933 6.21838 11.5455 6.33399 11.5455 6.45455V6.58217C11.5437 7.01122 11.4166 7.4304 11.1797 7.78812C10.9428 8.14584 10.6065 8.42649 10.2121 8.5955C10.1367 8.62784 10.0577 8.65068 9.97708 8.66366C9.62598 8.7818 9.2496 8.80971 8.88298 8.74323C8.45045 8.66481 8.05134 8.45861 7.7371 8.15123L7.72921 8.14351L7.68562 8.09983C7.64341 8.05757 7.59288 8.02365 7.5377 8.00078C7.48252 7.9779 7.42337 7.96613 7.36364 7.96613C7.3039 7.96613 7.24475 7.9779 7.18957 8.00078C7.13439 8.02365 7.08426 8.05718 7.04205 8.09944L7.04126 8.10023C6.999 8.14244 6.96547 8.19257 6.9426 8.24775C6.91972 8.30294 6.90795 8.36208 6.90795 8.42182C6.90795 8.48155 6.91972 8.5407 6.9426 8.59588C6.96547 8.65106 6.999 8.70119 7.04126 8.74341L7.09309 8.79524C7.40047 9.10948 7.60663 9.50864 7.68505 9.94116C7.7616 10.3633 7.71299 10.7984 7.5456 11.1929C7.39123 11.5948 7.12227 11.9427 6.77178 12.1934C6.41272 12.4502 5.98471 12.593 5.54338 12.6034L5.52 12.6036H5.45455C5.33399 12.6036 5.21838 12.6515 5.13313 12.7368C5.04789 12.822 5 12.9376 5 13.0582C5 13.1787 5.04789 13.2943 5.13313 13.3796C5.21838 13.4648 5.33399 13.5127 5.45455 13.5127H5.58217C6.01122 13.5144 6.4304 13.6416 6.78812 13.8785C7.14436 14.1144 7.42416 14.4489 7.5934 14.8412C7.76914 15.242 7.82134 15.6863 7.74323 16.117C7.66481 16.5495 7.45861 16.9487 7.15123 17.2629L7.14351 17.2708L7.09983 17.3144C7.05757 17.3566 7.02365 17.4071 7.00078 17.4623C6.9779 17.5175 6.96613 17.5766 6.96613 17.6364C6.96613 17.6961 6.9779 17.7552 7.00078 17.8104C7.02365 17.8656 7.05718 17.9157 7.09944 17.958L7.10023 17.9587C7.14244 18.001 7.19257 18.0345 7.24775 18.0574C7.30294 18.0803 7.36209 18.0921 7.42182 18.0921C7.48155 18.0921 7.5407 18.0803 7.59588 18.0574C7.65107 18.0345 7.7012 18.001 7.74341 17.9587L7.79524 17.9069C8.10948 17.5995 8.50864 17.3934 8.94116 17.3149C9.36331 17.2384 9.7984 17.287 10.1929 17.4544C10.5947 17.6088 10.9427 17.8777 11.1934 18.2282C11.4502 18.5873 11.593 19.0153 11.6034 19.4566L11.6036 19.48V19.5455C11.6036 19.666 11.6515 19.7816 11.7368 19.8669C11.822 19.9521 11.9376 20 12.0582 20C12.1787 20 12.2943 19.9521 12.3796 19.8669C12.4648 19.7816 12.5127 19.666 12.5127 19.5455V19.4178C12.5144 18.9888 12.6416 18.5696 12.8785 18.2119C13.1144 17.8556 13.4489 17.5758 13.8412 17.4066C14.242 17.2309 14.6863 17.1787 15.117 17.2568C15.5495 17.3352 15.9487 17.5414 16.2629 17.8488L16.2708 17.8565L16.3144 17.9002C16.3566 17.9424 16.4071 17.9763 16.4623 17.9992C16.5175 18.0221 16.5766 18.0339 16.6364 18.0339C16.6961 18.0339 16.7552 18.0221 16.8104 17.9992C16.8656 17.9763 16.9157 17.9428 16.958 17.9006L16.9587 17.8998C17.001 17.8576 17.0345 17.8074 17.0574 17.7522C17.0803 17.6971 17.0921 17.6379 17.0921 17.5782C17.0921 17.5184 17.0803 17.4593 17.0574 17.4041C17.0345 17.3489 17.001 17.2988 16.9587 17.2566L16.9069 17.2048C16.5995 16.8905 16.3934 16.4914 16.3149 16.0588C16.2368 15.6281 16.289 15.1839 16.4648 14.783C16.634 14.3907 16.9138 14.0562 17.2701 13.8203C17.6278 13.5834 18.047 13.4563 18.476 13.4546L18.48 13.4545L18.5455 13.4545C18.666 13.4545 18.7816 13.4067 18.8669 13.3214C18.9521 13.2362 19 13.1206 19 13C19 12.8794 18.9521 12.7638 18.8669 12.6786C18.7816 12.5933 18.666 12.5455 18.5455 12.5455H18.4178C17.9888 12.5437 17.5696 12.4166 17.2119 12.1797C16.8542 11.9428 16.5735 11.6065 16.4045 11.2121C16.3722 11.1367 16.3493 11.0577 16.3363 10.9771C16.2182 10.626 16.1903 10.2496 16.2568 9.88298C16.3352 9.45045 16.5414 9.05134 16.8488 8.7371L16.8565 8.72922L16.9002 8.68562C16.9424 8.64341 16.9763 8.59288 16.9992 8.5377C17.0221 8.48252 17.0339 8.42337 17.0339 8.36364C17.0339 8.3039 17.0221 8.24475 16.9992 8.18957C16.9763 8.13439 16.9428 8.08426 16.9006 8.04205L16.8998 8.04126C16.8576 7.999 16.8074 7.96547 16.7522 7.9426C16.6971 7.91972 16.6379 7.90795 16.5782 7.90795C16.5184 7.90795 16.4593 7.91972 16.4041 7.9426C16.3489 7.96547 16.2988 7.999 16.2566 8.04126L16.2048 8.09309C15.8905 8.40047 15.4914 8.60663 15.0588 8.68505C14.6281 8.76315 14.1839 8.71096 13.783 8.53522C13.3907 8.36598 13.0562 8.08618 12.8203 7.72994C12.5834 7.37222 12.4563 6.95304 12.4546 6.52399L12.4545 6.52V6.45455C12.4545 6.33399 12.4067 6.21838 12.3214 6.13313C12.2362 6.04789 12.1206 6 12 6ZM10.2644 4.71892C10.7247 4.2586 11.349 4 12 4C12.651 4 13.2753 4.2586 13.7356 4.71892C14.1959 5.17924 14.4545 5.80356 14.4545 6.45455V6.51723C14.4549 6.55581 14.4665 6.59346 14.4878 6.62564C14.5093 6.65816 14.5399 6.68368 14.5758 6.69904L14.5856 6.70327C14.6222 6.7194 14.6627 6.72427 14.702 6.71714C14.7403 6.7102 14.7757 6.69226 14.8039 6.66554L14.8416 6.62783C14.8415 6.62796 14.8417 6.6277 14.8416 6.62783C15.0695 6.3998 15.3404 6.2185 15.6382 6.09505C15.9362 5.97153 16.2556 5.90795 16.5782 5.90795C16.9007 5.90795 17.2201 5.97153 17.5181 6.09505C17.816 6.21852 18.0866 6.39946 18.3145 6.62753C18.5425 6.85539 18.7233 7.12592 18.8468 7.42369C18.9703 7.72167 19.0339 8.04107 19.0339 8.36364C19.0339 8.6862 18.9703 9.00561 18.8468 9.30358C18.7232 9.60156 18.5422 9.87226 18.314 10.1002C18.314 10.1002 18.314 10.1002 18.314 10.1002L18.2763 10.1379C18.2496 10.1661 18.2316 10.2015 18.2247 10.2398C18.2176 10.2791 18.2224 10.3197 18.2385 10.3562C18.2573 10.3989 18.2731 10.4428 18.2858 10.4875C18.295 10.4967 18.3052 10.505 18.3162 10.5122C18.3484 10.5335 18.3861 10.5451 18.4247 10.5455H18.5455C19.1964 10.5455 19.8208 10.8041 20.2811 11.2644C20.7414 11.7247 21 12.349 21 13C21 13.651 20.7414 14.2753 20.2811 14.7356C19.8208 15.1959 19.1964 15.4545 18.5455 15.4545H18.4828C18.4442 15.4549 18.4065 15.4665 18.3744 15.4878C18.3418 15.5093 18.3163 15.5399 18.301 15.5758L18.2967 15.5856C18.2806 15.6222 18.2757 15.6627 18.2829 15.702C18.2898 15.7403 18.3077 15.7757 18.3345 15.8039L18.3722 15.8416C18.372 15.8415 18.3723 15.8417 18.3722 15.8416C18.6002 16.0695 18.7815 16.3404 18.905 16.6382C19.0285 16.9362 19.0921 17.2556 19.0921 17.5782C19.0921 17.9007 19.0285 18.2202 18.905 18.5181C18.7815 18.8159 18.6006 19.0865 18.3726 19.3144C18.1447 19.5424 17.8741 19.7233 17.5763 19.8468C17.2783 19.9703 16.9589 20.0339 16.6364 20.0339C16.3138 20.0339 15.9944 19.9703 15.6964 19.8468C15.3986 19.7233 15.128 19.5424 14.9002 19.3144C14.9 19.3142 14.9003 19.3145 14.9002 19.3144L14.8621 19.2763C14.8339 19.2496 14.7985 19.2316 14.7602 19.2247C14.7209 19.2176 14.6803 19.2224 14.6438 19.2385L14.634 19.2428C14.5981 19.2582 14.5675 19.2837 14.546 19.3162C14.5247 19.3484 14.5131 19.386 14.5127 19.4246V19.5455C14.5127 20.1964 14.2541 20.8208 13.7938 21.2811C13.3335 21.7414 12.7092 22 12.0582 22C11.4072 22 10.7829 21.7414 10.3226 21.2811C9.86224 20.8208 9.60364 20.1964 9.60364 19.5455V19.4966C9.60147 19.4589 9.58867 19.4225 9.56664 19.3917C9.54329 19.3591 9.51067 19.3342 9.473 19.3204C9.45323 19.3131 9.43369 19.3052 9.41442 19.2967C9.37786 19.2805 9.3373 19.2757 9.29798 19.2829C9.25971 19.2898 9.22432 19.3077 9.19612 19.3345L9.15841 19.3722C9.15828 19.3723 9.15854 19.372 9.15841 19.3722C8.93053 19.6002 8.65957 19.7815 8.36176 19.905C8.06379 20.0285 7.74438 20.0921 7.42182 20.0921C7.09925 20.0921 6.77985 20.0285 6.48187 19.905C6.18411 19.7815 5.91357 19.6006 5.68571 19.3727C5.45764 19.1448 5.2767 18.8742 5.15323 18.5763C5.02971 18.2783 4.96613 17.9589 4.96613 17.6364C4.96613 17.3138 5.02971 16.9944 5.15323 16.6964C5.27668 16.3986 5.45759 16.128 5.68562 15.9002C5.68549 15.9003 5.68575 15.9 5.68562 15.9002L5.72372 15.8621C5.75044 15.8339 5.76838 15.7985 5.77532 15.7602C5.78245 15.7209 5.77764 15.6803 5.7615 15.6438L5.75717 15.634C5.74181 15.5981 5.71635 15.5675 5.68383 15.546C5.65164 15.5247 5.61399 15.5131 5.57541 15.5127H5.45455C4.80356 15.5127 4.17924 15.2541 3.71892 14.7938C3.2586 14.3335 3 13.7092 3 13.0582C3 12.4072 3.2586 11.7829 3.71892 11.3226C4.17924 10.8622 4.80356 10.6036 5.45455 10.6036H5.50339C5.5411 10.6015 5.57749 10.5887 5.60829 10.5666C5.64093 10.5433 5.66579 10.5107 5.67965 10.473C5.68692 10.4532 5.69481 10.4337 5.70332 10.4144C5.71945 10.3779 5.72427 10.3373 5.71714 10.298C5.7102 10.2597 5.69225 10.2243 5.66553 10.1961L5.62783 10.1584C5.39962 9.93045 5.21857 9.65974 5.09505 9.36176C4.97153 9.06379 4.90795 8.74438 4.90795 8.42182C4.90795 8.09925 4.97153 7.77985 5.09505 7.48187C5.2185 7.18407 5.39941 6.9135 5.62744 6.68562C5.85532 6.45759 6.12589 6.27668 6.42369 6.15323C6.72167 6.02971 7.04107 5.96613 7.36364 5.96613C7.6862 5.96613 8.0056 6.02971 8.30358 6.15323C8.60156 6.27675 8.87227 6.4578 9.10023 6.68601L9.13793 6.72371C9.16613 6.75044 9.20153 6.76838 9.2398 6.77532C9.27912 6.78245 9.31968 6.77764 9.35624 6.7615C9.39894 6.74266 9.4428 6.72687 9.48749 6.71421C9.49666 6.70496 9.50495 6.69479 9.51221 6.68383C9.53354 6.65162 9.54508 6.61393 9.54545 6.57532V6.45455C9.54545 5.80356 9.80406 5.17924 10.2644 4.71892Z" fill="white"/>
</svg>
