<svg width="24" height="24" viewBox="0 0 24 24" fill="none" xmlns="http://www.w3.org/2000/svg">
<path fill-rule="evenodd" clip-rule="evenodd" d="M16.2001 5.70022C15.4269 5.70022 14.8002 6.327 14.8002 7.10016C14.8002 7.34432 14.8627 7.57388 14.9725 7.77371C14.979 7.78364 14.9853 7.79379 14.9914 7.80416C14.9974 7.8145 15.0031 7.82493 15.0086 7.83545C15.2553 8.23433 15.6966 8.50009 16.2001 8.50009C16.9733 8.50009 17.6 7.87332 17.6 7.10016C17.6 6.327 16.9733 5.70022 16.2001 5.70022ZM14.2106 9.07023C14.718 9.58262 15.422 9.90002 16.2001 9.90002C17.7464 9.90002 19 8.64648 19 7.10016C19 5.55383 17.7464 4.30029 16.2001 4.30029C14.6538 4.30029 13.4002 5.55383 13.4002 7.10016C13.4002 7.36394 13.4367 7.61921 13.5049 7.86118L9.78943 10.0294C9.28203 9.5173 8.57824 9.20007 7.80035 9.20007C6.25403 9.20007 5.00049 10.4536 5.00049 11.9999C5.00049 13.5463 6.25403 14.7998 7.80035 14.7998C8.57848 14.7998 9.28248 14.4824 9.7899 13.9699L13.5059 16.1353C13.437 16.3783 13.4002 16.6347 13.4002 16.8997C13.4002 18.446 14.6538 19.6996 16.2001 19.6996C17.7464 19.6996 19 18.446 19 16.8997C19 15.3534 17.7464 14.0999 16.2001 14.0999C15.4233 14.0999 14.7203 14.4162 14.2131 14.9272L10.4956 12.7609C10.5637 12.5189 10.6002 12.2637 10.6002 11.9999C10.6002 11.7359 10.5637 11.4805 10.4954 11.2383L14.2106 9.07023ZM8.9893 11.2605C8.99533 11.2723 9.00172 11.284 9.00849 11.2956C9.01533 11.3074 9.02246 11.3188 9.02987 11.33C9.13853 11.529 9.20028 11.7572 9.20028 11.9999C9.20028 12.2419 9.13888 12.4696 9.03079 12.6682C9.02297 12.6799 9.01546 12.692 9.00826 12.7043C9.00126 12.7163 8.99466 12.7285 8.98845 12.7407C8.74113 13.1365 8.30149 13.3999 7.80035 13.3999C7.02719 13.3999 6.40042 12.7731 6.40042 11.9999C6.40042 11.2268 7.02719 10.6 7.80035 10.6C8.30207 10.6 8.74214 10.8639 8.9893 11.2605ZM14.9519 16.2652C14.9686 16.2431 14.9842 16.2196 14.9986 16.195C15.0123 16.1714 15.0245 16.1474 15.0352 16.123C15.2863 15.7472 15.7143 15.4998 16.2001 15.4998C16.9733 15.4998 17.6 16.1266 17.6 16.8997C17.6 17.6729 16.9733 18.2996 16.2001 18.2996C15.4269 18.2996 14.8002 17.6729 14.8002 16.8997C14.8002 16.6713 14.8549 16.4557 14.9519 16.2652Z" fill="white"/>
</svg>
