<svg width="24" height="24" viewBox="0 0 24 24" fill="none" xmlns="http://www.w3.org/2000/svg">
<path fill-rule="evenodd" clip-rule="evenodd" d="M10.4585 5.52153C9.92708 5.26043 9.31104 5.2062 8.73805 5.37201C8.16254 5.53855 7.68126 5.91205 7.38783 6.40774L7.07725 6.93262L13.968 10.8145L14.294 10.2636L14.3649 10.1368C14.6246 9.6309 14.6767 9.04997 14.5124 8.50973C14.3466 7.96462 13.9706 7.49535 13.4538 7.20429L10.5895 5.58986L10.4585 5.52153ZM6.90612 6.83621C6.90592 6.8361 6.90632 6.83632 6.90612 6.83621V6.83621ZM8.18211 3.45083C9.23736 3.14547 10.3725 3.24617 11.3558 3.73406L11.3649 3.73858L11.5439 3.83196L14.4353 5.46167C14.4353 5.46165 14.4353 5.46169 14.4353 5.46167C15.3921 6.00061 16.1075 6.88125 16.4258 7.92776C16.7443 8.97495 16.6385 10.1014 16.1324 11.0727L16.1256 11.0858L16.0277 11.2609L15.6062 11.9733C15.6062 11.9733 15.6063 11.9732 15.6062 11.9733C15.3783 12.3586 15.017 12.6433 14.5962 12.7797C14.1757 12.916 13.7192 12.8972 13.3111 12.7261L13.2832 12.7144L13.1439 12.6458L5.92566 8.5794C5.53873 8.36158 5.24046 8.00869 5.09563 7.58307C4.95053 7.15665 4.97126 6.69249 5.15298 6.28091L5.16622 6.25091L5.23771 6.11404L5.6666 5.38923C6.2241 4.44734 7.12643 3.75631 8.18211 3.45083Z" fill="white"/>
<path fill-rule="evenodd" clip-rule="evenodd" d="M16.6133 6H11.6133V4H16.6133C18.2701 4 19.6133 5.34315 19.6133 7V19C19.6133 19.5523 19.1656 20 18.6133 20C18.061 20 17.6133 19.5523 17.6133 19V7C17.6133 6.44772 17.1656 6 16.6133 6Z" fill="white"/>
<path fill-rule="evenodd" clip-rule="evenodd" d="M6.19637 10.1219C6.68129 10.3863 6.8601 10.9937 6.59575 11.4786L5.8778 12.7956C5.61346 13.2805 5.00607 13.4593 4.52116 13.195C4.03624 12.9307 3.85743 12.3233 4.12177 11.8383L4.83973 10.5213C5.10407 10.0364 5.71146 9.8576 6.19637 10.1219Z" fill="white"/>
<path fill-rule="evenodd" clip-rule="evenodd" d="M11.4649 12.994C11.9498 13.2584 12.1287 13.8657 11.8643 14.3507L11.1464 15.6677C10.882 16.1526 10.2746 16.3314 9.78971 16.0671C9.3048 15.8027 9.12599 15.1953 9.39033 14.7104L10.1083 13.3934C10.3726 12.9085 10.98 12.7297 11.4649 12.994Z" fill="white"/>
<path fill-rule="evenodd" clip-rule="evenodd" d="M8.35165 12.4359C8.83656 12.7003 9.01537 13.3076 8.75103 13.7926L8.03308 15.1096C7.76873 15.5945 7.16134 15.7733 6.67643 15.509C6.19151 15.2446 6.01271 14.6372 6.27705 14.1523L6.995 12.8353C7.25934 12.3504 7.86673 12.1716 8.35165 12.4359Z" fill="white"/>
</svg>
