<svg width="24" height="24" viewBox="0 0 24 24" fill="none" xmlns="http://www.w3.org/2000/svg">
<path fill-rule="evenodd" clip-rule="evenodd" d="M16 12C16.5523 12 17 12.398 17 12.8889V15.1111C17 15.602 16.5523 16 16 16C15.4477 16 15 15.602 15 15.1111V12.8889C15 12.398 15.4477 12 16 12Z" fill="white"/>
<path fill-rule="evenodd" clip-rule="evenodd" d="M19 12C19.5523 12 20 12.398 20 12.8889V15.1111C20 15.602 19.5523 16 19 16C18.4477 16 18 15.602 18 15.1111V12.8889C18 12.398 18.4477 12 19 12Z" fill="white"/>
<path fill-rule="evenodd" clip-rule="evenodd" d="M16.3723 5.11862C16.6807 5.33487 16.7641 5.77312 16.5585 6.09748C16.2881 6.52393 16.2701 7.07439 16.5119 7.51938L16.6536 7.7802C17.1477 8.68946 17.1108 9.81424 16.5585 10.6856C16.3528 11.01 15.9361 11.0976 15.6277 10.8814C15.3193 10.6651 15.2359 10.2269 15.4415 9.90252C15.7119 9.47607 15.7299 8.92561 15.4881 8.48062L15.3464 8.2198C14.8523 7.31053 14.8892 6.18576 15.4415 5.3144C15.6472 4.99003 16.0639 4.90238 16.3723 5.11862Z" fill="white"/>
<path fill-rule="evenodd" clip-rule="evenodd" d="M19.3723 5.11862C19.6807 5.33487 19.7641 5.77312 19.5585 6.09748C19.2881 6.52393 19.2701 7.07439 19.5119 7.51938L19.6536 7.7802C20.1477 8.68946 20.1108 9.81424 19.5585 10.6856C19.3528 11.01 18.9361 11.0976 18.6277 10.8814C18.3193 10.6651 18.2359 10.2269 18.4415 9.90252C18.7119 9.47607 18.7299 8.92561 18.4881 8.48062L18.3464 8.2198C17.8523 7.31053 17.8892 6.18576 18.4415 5.3144C18.6472 4.99003 19.0639 4.90238 19.3723 5.11862Z" fill="white"/>
<path d="M13 12H5C4.44772 12 4 12.4477 4 13V15C4 15.5523 4.44772 16 5 16H13C13.5523 16 14 15.5523 14 15V13C14 12.4477 13.5523 12 13 12Z" fill="white"/>
</svg>
