<svg width="24" height="24" viewBox="0 0 24 24" fill="none" xmlns="http://www.w3.org/2000/svg">
<path fill-rule="evenodd" clip-rule="evenodd" d="M7.531 3C7.53975 3 7.54847 3.0001 7.55717 3.00031C7.81102 3.00627 8.06298 3.10126 8.25671 3.28529L11.7631 6.61615C12.1635 6.99652 12.1635 7.61323 11.7631 7.9936C11.3626 8.37398 10.7134 8.37398 10.313 7.9936L8.55633 6.32484V20.0291C8.55633 20.567 8.09728 21.0031 7.531 21.0031C6.96473 21.0031 6.50567 20.567 6.50567 20.0291V6.32614L4.75035 7.9936C4.34993 8.37398 3.70073 8.37398 3.30031 7.9936C2.8999 7.61323 2.8999 6.99652 3.30031 6.61615L6.78377 3.30704C6.9708 3.11804 7.23639 3 7.531 3ZM16.4719 21.0031C16.4807 21.0031 16.4894 21.003 16.4981 21.0028C16.7519 20.9968 17.0039 20.9018 17.1976 20.7178L20.704 17.387C21.1044 17.0066 21.1044 16.3899 20.704 16.0095C20.3036 15.6291 19.6544 15.6291 19.2539 16.0095L17.4973 17.6783V3.97406C17.4973 3.43613 17.0382 3.00005 16.4719 3.00005C15.9056 3.00005 15.4466 3.43613 15.4466 3.97406V17.677L13.6913 16.0095C13.2909 15.6291 12.6416 15.6291 12.2412 16.0095C11.8408 16.3899 11.8408 17.0066 12.2412 17.387L15.7247 20.6961C15.9117 20.8851 16.1773 21.0031 16.4719 21.0031Z" fill="white"/>
</svg>
