<svg width="24" height="24" viewBox="0 0 24 24" fill="none" xmlns="http://www.w3.org/2000/svg">
<path d="M19.9732 10.0523C19.9227 9.89931 19.8309 9.7649 19.709 9.6654C19.587 9.5659 19.4401 9.5056 19.2861 9.4918L14.7403 8.79739L12.7031 4.47196C12.6376 4.33051 12.5355 4.21121 12.4083 4.12774C12.2812 4.04427 12.1341 4 11.984 4C11.834 4 11.6869 4.04427 11.5597 4.12774C11.4326 4.21121 11.3304 4.33051 11.265 4.47196L9.22779 8.78902L4.68198 9.4918C4.53411 9.51381 4.39511 9.57878 4.28072 9.67934C4.16634 9.7799 4.08116 9.91202 4.03486 10.0607C3.99247 10.206 3.98867 10.3607 4.02385 10.5081C4.05904 10.6555 4.13189 10.79 4.23458 10.8974L7.53409 14.2439L6.73518 18.996C6.70666 19.1529 6.72159 19.315 6.77822 19.4633C6.83485 19.6115 6.9308 19.7397 7.05475 19.8327C7.17556 19.9231 7.31805 19.9765 7.46622 19.9868C7.6144 19.9972 7.7624 19.9641 7.8936 19.8912L11.984 17.6574L16.0585 19.8996C16.1706 19.9658 16.2973 20.0004 16.426 20C16.5952 20.0006 16.7603 19.945 16.8974 19.841C17.0213 19.7481 17.1173 19.6199 17.1739 19.4716C17.2305 19.3234 17.2454 19.1612 17.2169 19.0044L16.418 14.2523L19.7175 10.9057C19.8329 10.8034 19.9181 10.6689 19.9634 10.5178C20.0086 10.3668 20.012 10.2053 19.9732 10.0523ZM15.0599 13.3989C14.9662 13.4938 14.8961 13.6113 14.8557 13.7411C14.8153 13.8709 14.8058 14.009 14.8282 14.1435L15.4034 17.649L12.3995 15.9758C12.2839 15.9113 12.1549 15.8776 12.024 15.8776C11.893 15.8776 11.7641 15.9113 11.6485 15.9758L8.64458 17.649L9.2198 14.1435C9.24212 14.009 9.23267 13.8709 9.19229 13.7411C9.15191 13.6113 9.08181 13.4938 8.98811 13.3989L6.59138 10.889L9.9548 10.3786C10.0842 10.3598 10.2073 10.308 10.3131 10.2277C10.419 10.1475 10.5044 10.0413 10.562 9.91848L11.984 6.73088L13.486 9.92685C13.5435 10.0497 13.629 10.1559 13.7349 10.2361C13.8407 10.3163 13.9637 10.3681 14.0932 10.387L17.4566 10.8974L15.0599 13.3989Z" fill="#858585"/>
<path d="M15.0599 13.3989C14.9662 13.4938 14.8961 13.6113 14.8557 13.7411C14.8153 13.8709 14.8058 14.009 14.8282 14.1435L15.4034 17.649L12.3995 15.9758C12.2839 15.9113 12.1549 15.8776 12.024 15.8776C11.893 15.8776 11.7641 15.9113 11.6485 15.9758L8.64458 17.649L9.2198 14.1435C9.24212 14.009 9.23267 13.8709 9.19229 13.7411C9.15191 13.6113 9.08181 13.4938 8.98811 13.3989L6.59138 10.889L9.9548 10.3786C10.0842 10.3598 10.2073 10.308 10.3131 10.2277C10.419 10.1475 10.5044 10.0413 10.562 9.91848L11.984 6.73088L13.486 9.92685C13.5435 10.0497 13.629 10.1559 13.7349 10.2361C13.8407 10.3163 13.9637 10.3681 14.0932 10.387L17.4566 10.8974L15.0599 13.3989Z" fill="#858585"/>
<path d="M4.68198 9.49184L9.22779 8.78906L9.5 19L7.8936 19.8913C7.7624 19.9641 7.6144 19.9972 7.46622 19.9869C7.31805 19.9765 7.17556 19.9232 7.05475 19.8327C6.9308 19.7397 6.83485 19.6115 6.77822 19.4633C6.72159 19.315 6.70666 19.1529 6.73518 18.9961L7.53409 14.244L4.23458 10.8974C4.13189 10.7901 4.05904 10.6555 4.02385 10.5081C3.98867 10.3607 3.99247 10.2061 4.03486 10.0608C4.08116 9.91206 4.16634 9.77994 4.28072 9.67938C4.39511 9.57882 4.53411 9.51385 4.68198 9.49184Z" fill="#E3702D"/>
</svg>
