<svg width="24" height="24" viewBox="0 0 24 24" fill="none" xmlns="http://www.w3.org/2000/svg">
<path d="M4.89996 10.45C4.45815 10.7814 4.36864 11.4082 4.70003 11.85C5.03142 12.2919 5.65823 12.3814 6.10004 12.05L4.89996 10.45ZM8.49968 9L9.16864 8.25671C8.8135 7.93708 8.28186 7.91333 7.89964 8.20003L8.49968 9ZM12.8307 14.2433C13.2412 14.6128 13.8735 14.5795 14.243 14.169C14.6124 13.7585 14.5792 13.1262 14.1686 12.7567L12.8307 14.2433ZM10.9997 11.25L11.6686 10.5067V10.5067L10.9997 11.25ZM6.31574 14.2705C5.91282 14.6482 5.89241 15.281 6.27014 15.6839C6.64787 16.0869 7.28071 16.1073 7.68362 15.7295L6.31574 14.2705ZM6.10004 12.05L9.09972 9.79997L7.89964 8.20003L4.89996 10.45L6.10004 12.05ZM7.83071 9.74329L10.3307 11.9933L11.6686 10.5067L9.16864 8.25671L7.83071 9.74329ZM10.3307 11.9933C10.8189 12.4326 11.1998 12.7755 11.5807 13.1183C11.9616 13.4611 12.3426 13.804 12.8307 14.2433L14.1686 12.7567C13.6805 12.3174 13.2996 11.9745 12.9186 11.6317C12.5377 11.2889 12.1568 10.946 11.6686 10.5067L10.3307 11.9933ZM10.3157 10.5205L6.31574 14.2705L7.68362 15.7295L11.6836 11.9795L10.3157 10.5205Z" fill="white"/>
<circle cx="13.147" cy="7.64699" r="2.5" transform="rotate(-3.47721 13.147 7.64699)" fill="white"/>
<path fill-rule="evenodd" clip-rule="evenodd" d="M19.4701 15.9952C17.3471 14.6683 14.6532 14.6683 12.5301 15.9952C9.75854 17.7274 6.24173 17.7274 3.47013 15.9952C3.0018 15.7025 2.85943 15.0855 3.15214 14.6172C3.44485 14.1488 4.0618 14.0065 4.53013 14.2992C6.65319 15.6261 9.34708 15.6261 11.4701 14.2992C14.2417 12.5669 17.7585 12.5669 20.5301 14.2992C20.9985 14.5919 21.1408 15.2088 20.8481 15.6772C20.5554 16.1455 19.9385 16.2879 19.4701 15.9952Z" fill="white"/>
<path fill-rule="evenodd" clip-rule="evenodd" d="M19.4701 18.9952C17.3471 17.6683 14.6532 17.6683 12.5301 18.9952C9.75854 20.7274 6.24173 20.7274 3.47013 18.9952C3.0018 18.7025 2.85943 18.0855 3.15214 17.6172C3.44485 17.1488 4.0618 17.0065 4.53013 17.2992C6.65319 18.6261 9.34708 18.6261 11.4701 17.2992C14.2417 15.5669 17.7585 15.5669 20.5301 17.2992C20.9985 17.5919 21.1408 18.2088 20.8481 18.6772C20.5554 19.1455 19.9385 19.2879 19.4701 18.9952Z" fill="white"/>
</svg>
