<svg width="24" height="24" viewBox="0 0 24 24" fill="none" xmlns="http://www.w3.org/2000/svg">
<path fill-rule="evenodd" clip-rule="evenodd" d="M14.5 4C12.567 4 11 5.567 11 7.5V8C11 8.55228 11.4477 9 12 9C12.5523 9 13 8.55228 13 8V7.5C13 6.67157 13.6716 6 14.5 6C15.3284 6 16 6.67157 16 7.5V11H4C3.44772 11 3 11.4477 3 12C3 12.5523 3.44772 13 4 13H5.5V16C5.5 17.1046 6.39543 18 7.5 18H8.38197L8.10557 18.5528C7.85858 19.0468 8.05881 19.6474 8.55279 19.8944C9.04676 20.1414 9.64744 19.9412 9.89443 19.4472L10.618 18H13.382L14.1056 19.4472C14.3526 19.9412 14.9532 20.1414 15.4472 19.8944C15.9412 19.6474 16.1414 19.0468 15.8944 18.5528L15.618 18H16C17.1046 18 18 17.1046 18 16V13H19C19.5523 13 20 12.5523 20 12C20 11.4477 19.5523 11 19 11H18V7.5C18 5.567 16.433 4 14.5 4ZM14.0201 16H16V13H7.5V16H9.97988C9.99379 15.9997 10.0077 15.9997 10.0217 16H13.9783C13.9923 15.9997 14.0062 15.9997 14.0201 16Z" fill="white"/>
</svg>
