<svg width="24" height="24" viewBox="0 0 24 24" fill="none" xmlns="http://www.w3.org/2000/svg">
<path fill-rule="evenodd" clip-rule="evenodd" d="M18.2072 8.0731C16.4703 6.53089 14.2721 5.70588 12.0121 5.75182C12.0023 5.75202 11.9924 5.75202 11.9826 5.75183C9.72962 5.70689 7.53718 6.52188 5.79649 8.04765C5.73386 8.10436 5.68462 8.17387 5.65113 8.25063C5.61724 8.32832 5.6 8.41219 5.6 8.49649C5.6 8.58079 5.61724 8.66466 5.65113 8.74235C5.68415 8.81803 5.73248 8.88666 5.79386 8.94293L5.96349 9.0884C6.06521 9.17745 6.1949 9.22795 6.33085 9.22795C6.46679 9.22795 6.59651 9.17748 6.69823 9.08844L6.70464 9.08283C8.21016 7.79243 10.0912 7.11836 12.013 7.17655C13.9324 7.12909 15.8077 7.81169 17.3061 9.1072L17.3099 9.11047C17.4116 9.19952 17.5414 9.25 17.6773 9.25C17.8103 9.25 17.9373 9.20171 18.038 9.11628C18.0591 9.09693 18.0784 9.08018 18.0937 9.06702L18.1195 9.04513L18.1389 9.02872C18.1513 9.01816 18.1572 9.01285 18.159 9.01116C18.1736 8.99566 18.1888 8.98077 18.2044 8.96654C18.2672 8.90945 18.3164 8.83951 18.3498 8.76233C18.3831 8.68522 18.4 8.60209 18.4 8.51854C18.4 8.43499 18.3831 8.35186 18.3498 8.27474C18.3169 8.19872 18.2687 8.12971 18.2072 8.0731ZM11.9971 4.00183C14.6281 3.95212 17.1909 4.91462 19.2205 6.71874L19.2275 6.72497C19.4682 6.94385 19.6626 7.21739 19.7965 7.52728C19.9303 7.83724 20 8.17555 20 8.51854C20 8.86153 19.9303 9.19983 19.7965 9.50979C19.6669 9.80991 19.4803 10.0759 19.2501 10.2912C19.1985 10.3438 19.1511 10.3846 19.1216 10.4097C19.1043 10.4245 19.0932 10.4338 19.0857 10.4402C19.0736 10.4504 19.0704 10.4531 19.0653 10.4578C19.0585 10.4643 19.0515 10.4706 19.0444 10.4768C18.6565 10.8164 18.1735 11 17.6773 11C17.182 11 16.6999 10.8171 16.3124 10.4787C15.1043 9.43493 13.587 8.88354 12.0312 8.92658C12.0163 8.92699 12.0015 8.92695 11.9866 8.92646C10.4295 8.87473 8.90798 9.41886 7.69434 10.4579C7.30704 10.7955 6.8255 10.978 6.33085 10.978C5.83613 10.978 5.35451 10.7954 4.96719 10.4578L4.79857 10.3132L4.78543 10.3017C4.54107 10.0829 4.34329 9.80813 4.20712 9.49602C4.07092 9.18386 4 8.84258 4 8.49649C4 8.1504 4.07092 7.80912 4.20712 7.49696C4.34329 7.18485 4.54107 6.9101 4.78543 6.69131L4.79156 6.68582C6.82336 4.90305 9.37689 3.95331 11.9971 4.00183Z" fill="white"/>
<path fill-rule="evenodd" clip-rule="evenodd" d="M14.1762 12.2763C13.5081 11.8679 12.7611 11.6594 12.0062 11.6669L11.9924 11.6669C11.2386 11.6607 10.493 11.8694 9.82592 12.2773C9.77018 12.3174 9.71868 12.3742 9.67853 12.447C9.63574 12.5245 9.60837 12.6158 9.60163 12.7132C9.59488 12.8107 9.60926 12.9073 9.64197 12.9942C9.67325 13.0772 9.71928 13.1463 9.77279 13.1986C9.83529 13.2519 9.90412 13.2788 9.9697 13.2842C10.0376 13.2898 10.109 13.273 10.1759 13.2294C10.1851 13.2235 10.1943 13.2177 10.2037 13.2122C10.7534 12.8858 11.3722 12.7175 12.0018 12.7271C12.6529 12.7225 13.2902 12.9109 13.8477 13.268C13.8601 13.2759 13.8722 13.2842 13.8841 13.2927C13.9282 13.3245 13.9735 13.3357 14.0143 13.3329C14.0552 13.3302 14.1017 13.3127 14.1454 13.2723L14.2191 13.2039C14.2189 13.204 14.2192 13.2037 14.2191 13.2039C14.2755 13.1511 14.3247 13.0796 14.3574 12.9933C14.3903 12.9066 14.405 12.8101 14.3985 12.7127C14.392 12.6152 14.3649 12.5238 14.3223 12.4461C14.2826 12.3735 14.2315 12.3167 14.1762 12.2763ZM11.9981 10.0002C13.0551 9.99115 14.0932 10.2869 15.011 10.8543C15.021 10.8605 15.0309 10.8669 15.0406 10.8735C15.3192 11.0633 15.548 11.3206 15.712 11.6201C15.876 11.9194 15.9719 12.2544 15.9947 12.5975C16.0175 12.9406 15.9669 13.286 15.8454 13.6061C15.7238 13.9263 15.5335 14.2151 15.2861 14.4458L15.2848 14.447L15.2099 14.5165C14.9077 14.7969 14.5251 14.9689 14.1167 14.9962C13.717 15.0229 13.3246 14.9089 12.9953 14.6786C12.6901 14.4868 12.3493 14.3902 12.0067 14.3938C11.9993 14.3939 11.9919 14.3938 11.9845 14.3937C11.6474 14.3875 11.3115 14.4755 11.0072 14.6536C10.6589 14.8753 10.2534 14.9794 9.84393 14.9457C9.42814 14.9116 9.03805 14.738 8.72393 14.4573L8.70965 14.4443C8.46272 14.2128 8.27317 13.9234 8.15242 13.6027C8.03173 13.2821 7.98201 12.9364 8.00578 12.5933C8.02954 12.2502 8.12642 11.9154 8.29134 11.6165C8.45636 11.3174 8.68606 11.0608 8.96534 10.872C8.97439 10.8658 8.98356 10.8599 8.99283 10.8542C9.90847 10.2885 10.9437 9.99291 11.9981 10.0002Z" fill="white"/>
<path d="M12 17C12.5523 17 13 17.4477 13 18C13 18.5523 12.5523 19 12 19C11.4477 19 11 18.5523 11 18C11 17.4477 11.4477 17 12 17Z" stroke="white" stroke-width="2" stroke-linecap="round" stroke-linejoin="round"/>
</svg>
